<?xml version="1.0" encoding="UTF-8" standalone="no"?>
<svg
   width="407.52518pt"
   height="530.87903pt"
   version="1.1"
   viewBox="0 0 407.52518 530.87903"
   id="svg427"
   sodipodi:docname="beaver.svg"
   inkscape:version="1.1.1 (3bf5ae0d25, 2021-09-20)"
   xmlns:inkscape="http://www.inkscape.org/namespaces/inkscape"
   xmlns:sodipodi="http://sodipodi.sourceforge.net/DTD/sodipodi-0.dtd"
   xmlns="http://www.w3.org/2000/svg"
   xmlns:svg="http://www.w3.org/2000/svg">
  <sodipodi:namedview
     id="namedview429"
     pagecolor="#505050"
     bordercolor="#eeeeee"
     borderopacity="1"
     inkscape:pageshadow="0"
     inkscape:pageopacity="0"
     inkscape:pagecheckerboard="0"
     inkscape:document-units="pt"
     showgrid="false"
     inkscape:zoom="0.82821429"
     inkscape:cx="281.93187"
     inkscape:cy="354.37689"
     inkscape:window-width="1920"
     inkscape:window-height="991"
     inkscape:window-x="-9"
     inkscape:window-y="-9"
     inkscape:window-maximized="1"
     inkscape:current-layer="svg427" />
  <defs
     id="defs289">
    <symbol
       id="w"
       overflow="visible">
      <path
         d="m 18.766,-1.125 c -0.96875,0.5 -1.9805,0.875 -3.0312,1.125 -1.043,0.25781 -2.1367,0.39062 -3.2812,0.39062 -3.3984,0 -6.0898,-0.94531 -8.0781,-2.8438 -1.9922,-1.9062 -2.9844,-4.4844 -2.9844,-7.7344 0,-3.2578 0.99219,-5.8359 2.9844,-7.7344 1.9883,-1.9062 4.6797,-2.8594 8.0781,-2.8594 1.1445,0 2.2383,0.13281 3.2812,0.39062 1.0508,0.25 2.0625,0.625 3.0312,1.125 v 4.2188 c -0.98047,-0.65625 -1.9453,-1.1406 -2.8906,-1.4531 -0.94922,-0.3125 -1.9492,-0.46875 -3,-0.46875 -1.875,0 -3.3516,0.60547 -4.4219,1.8125 -1.0742,1.1992 -1.6094,2.8555 -1.6094,4.9688 0,2.1055 0.53516,3.7617 1.6094,4.9688 1.0703,1.1992 2.5469,1.7969 4.4219,1.7969 1.0508,0 2.0508,-0.14844 3,-0.45312 0.94531,-0.3125 1.9102,-0.80078 2.8906,-1.4688 z"
         id="path220" />
    </symbol>
    <symbol
       id="b"
       overflow="visible">
      <path
         d="m 13.734,-11.141 c -0.4375,-0.19531 -0.87109,-0.34375 -1.2969,-0.4375 -0.41797,-0.10156 -0.83984,-0.15625 -1.2656,-0.15625 -1.2617,0 -2.2305,0.40625 -2.9062,1.2188 -0.67969,0.80469 -1.0156,1.9531 -1.0156,3.4531 v 7.0625 H 2.3591 v -15.312 h 4.8906 v 2.5156 c 0.625,-1 1.3438,-1.7266 2.1562,-2.1875 0.82031,-0.46875 1.8008,-0.70312 2.9375,-0.70312 0.16406,0 0.34375,0.01172 0.53125,0.03125 0.19531,0.01172 0.47656,0.03906 0.84375,0.07813 z"
         id="path223" />
    </symbol>
    <symbol
       id="a"
       overflow="visible">
      <path
         d="m 17.641,-7.7031 v 1.4062 H 6.188 c 0.125,1.1484 0.53906,2.0078 1.25,2.5781 0.70703,0.57422 1.7031,0.85938 2.9844,0.85938 1.0312,0 2.082,-0.14844 3.1562,-0.45312 1.082,-0.3125 2.1914,-0.77344 3.3281,-1.3906 v 3.7656 c -1.1562,0.4375 -2.3125,0.76562 -3.4688,0.98438 -1.1562,0.22656 -2.3125,0.34375 -3.4688,0.34375 -2.7734,0 -4.9297,-0.70312 -6.4688,-2.1094 -1.5312,-1.4062 -2.2969,-3.3789 -2.2969,-5.9219 0,-2.5 0.75391,-4.4609 2.2656,-5.8906 1.5078,-1.4375 3.582,-2.1562 6.2188,-2.1562 2.4062,0 4.332,0.73047 5.7812,2.1875 1.4453,1.4492 2.1719,3.3828 2.1719,5.7969 z m -5.0312,-1.625 c 0,-0.92578 -0.27344,-1.6719 -0.8125,-2.2344 -0.54297,-0.57031 -1.25,-0.85938 -2.125,-0.85938 -0.94922,0 -1.7188,0.26562 -2.3125,0.79688 -0.5937,0.53126 -0.96484,1.2969 -1.1094,2.2969 z"
         id="path226" />
    </symbol>
    <symbol
       id="g"
       overflow="visible">
      <path
         d="m 9.2188,-6.8906 c -1.0234,0 -1.793,0.17188 -2.3125,0.51562 -0.51172,0.34375 -0.76562,0.85547 -0.76562,1.5312 0,0.625 0.20703,1.1172 0.625,1.4688 0.41406,0.34375 0.98828,0.51562 1.7188,0.51562 0.92578,0 1.7031,-0.32812 2.3281,-0.98438 0.63281,-0.66406 0.95312,-1.4922 0.95312,-2.4844 v -0.5625 z m 7.4688,-1.8438 V 0 h -4.9219 v -2.2656 c -0.65625,0.92969 -1.3984,1.6055 -2.2188,2.0312 -0.82422,0.41406 -1.8242,0.625 -3,0.625 -1.5859,0 -2.8711,-0.45703 -3.8594,-1.375 -0.99219,-0.92578 -1.4844,-2.1289 -1.4844,-3.6094 0,-1.7891 0.61328,-3.1016 1.8438,-3.9375 1.2383,-0.84375 3.1797,-1.2656 5.8281,-1.2656 h 2.8906 v -0.39062 c 0,-0.76953 -0.30859,-1.332 -0.92188,-1.6875 -0.61719,-0.36328 -1.5703,-0.54688 -2.8594,-0.54688 -1.0547,0 -2.0312,0.10547 -2.9375,0.3125 -0.89844,0.21094 -1.7305,0.52344 -2.5,0.9375 v -3.7344 c 1.0391,-0.25 2.0859,-0.44141 3.1406,-0.57812 1.0625,-0.13281 2.125,-0.20312 3.1875,-0.20312 2.7578,0 4.75,0.54688 5.9688,1.6406 1.2266,1.0859 1.8438,2.8555 1.8438,5.3125 z"
         id="path229" />
    </symbol>
    <symbol
       id="c"
       overflow="visible">
      <path
         d="m 7.7031,-19.656 v 4.3438 H 12.75 v 3.5 H 7.7031 v 6.5 c 0,0.71094 0.14062,1.1875 0.42188,1.4375 0.28126,0.25 0.83594,0.375 1.6719,0.375 h 2.5156 v 3.5 h -4.1875 c -1.9375,0 -3.3125,-0.39844 -4.125,-1.2031 -0.80469,-0.8125 -1.2031,-2.1797 -1.2031,-4.1094 v -6.5 h -2.4219 v -3.5 h 2.4219 v -4.3438 z"
         id="path232" />
    </symbol>
    <symbol
       id="k"
       overflow="visible">
      <path
         d="m 12.766,-13.078 v -8.2031 h 4.9219 V -10e-5 H 12.766 v -2.2188 c -0.66797,0.90625 -1.4062,1.5703 -2.2188,1.9844 -0.8126,0.4141 -1.7578,0.625 -2.8281,0.625 -1.8867,0 -3.4336,-0.75 -4.6406,-2.25 -1.2109,-1.5 -1.8125,-3.4258 -1.8125,-5.7812 0,-2.3633 0.60156,-4.2969 1.8125,-5.7969 1.207,-1.5 2.7539,-2.25 4.6406,-2.25 1.0625,0 2,0.21484 2.8125,0.64062 0.82031,0.42969 1.5664,1.0859 2.2344,1.9688 z m -3.2188,9.9219 c 1.0391,0 1.8359,-0.37891 2.3906,-1.1406 0.55078,-0.76953 0.82812,-1.8828 0.82812,-3.3438 0,-1.457 -0.27734,-2.5664 -0.82812,-3.3281 -0.55469,-0.76953 -1.3516,-1.1562 -2.3906,-1.1562 -1.043,0 -1.8398,0.38672 -2.3906,1.1562 -0.55469,0.76172 -0.82812,1.8711 -0.82812,3.3281 0,1.4609 0.27344,2.5742 0.82812,3.3438 0.55078,0.76172 1.3477,1.1406 2.3906,1.1406 z"
         id="path235" />
    </symbol>
    <symbol
       id="f"
       overflow="visible">
      <path
         d="m 10.5,-3.1562 c 1.0508,0 1.8516,-0.37891 2.4062,-1.1406 0.55078,-0.76953 0.82812,-1.8828 0.82812,-3.3438 0,-1.457 -0.27734,-2.5664 -0.82812,-3.3281 -0.55469,-0.76953 -1.3555,-1.1562 -2.4062,-1.1562 -1.0547,0 -1.8594,0.38672 -2.4219,1.1562 -0.55469,0.77344 -0.82812,1.8828 -0.82812,3.3281 0,1.4492 0.27344,2.5586 0.82812,3.3281 0.5625,0.77344 1.3672,1.1562 2.4219,1.1562 z m -3.25,-9.9219 c 0.67578,-0.88281 1.4219,-1.5391 2.2344,-1.9688 0.82031,-0.42578 1.7656,-0.64062 2.8281,-0.64062 1.8945,0 3.4453,0.75 4.6562,2.25 1.207,1.5 1.8125,3.4336 1.8125,5.7969 0,2.3555 -0.60547,4.2812 -1.8125,5.7812 -1.2109,1.5 -2.7617,2.25 -4.6562,2.25 -1.0625,0 -2.0078,-0.21094 -2.8281,-0.625 C 8.6719,-0.6602 7.9258,-1.32032 7.25,-2.21882 V -2e-5 H 2.3594 v -21.281 H 7.25 Z"
         id="path238" />
    </symbol>
    <symbol
       id="j"
       overflow="visible">
      <path
         d="m 0.34375,-15.312 h 4.8906 l 4.125,10.391 3.5,-10.391 h 4.8906 l -6.4375,16.766 c -0.64844,1.6953 -1.4023,2.8828 -2.2656,3.5625 -0.86719,0.6875 -2,1.0312 -3.4062,1.0312 H 2.79685 V 2.8289 h 1.5312 c 0.83203,0 1.4375,-0.13672 1.8125,-0.40625 C 6.52336,2.16093 6.82024,1.69218 7.03117,1.01645 L 7.17179,0.59457 Z"
         id="path241" />
    </symbol>
    <symbol
       id="i"
       overflow="visible">
      <path
         d="M 14.953,-3.7188 H 6.7342 L 5.4217,0 H 0.1405 L 7.703,-20.406 h 6.2656 L 21.5311,0 H 16.2499 Z M 8.0468,-7.5 h 5.5781 l -2.7812,-8.125 z"
         id="path244" />
    </symbol>
    <symbol
       id="e"
       overflow="visible">
      <path
         d="M 2.3594,-21.281 H 7.25 V 0 H 2.3594 Z"
         id="path247" />
    </symbol>
    <symbol
       id="h"
       overflow="visible">
      <path
         d="M 17.75,-9.3281 V 0 h -4.9219 v -7.1406 c 0,-1.3203 -0.03125,-2.2344 -0.09375,-2.7344 -0.0625,-0.5 -0.16797,-0.86719 -0.3125,-1.1094 -0.1875,-0.3125 -0.44922,-0.55469 -0.78125,-0.73438 -0.32422,-0.17578 -0.69531,-0.26562 -1.1094,-0.26562 -1.0234,0 -1.8242,0.39844 -2.4062,1.1875 -0.58594,0.78125 -0.875,1.8711 -0.875,3.2656 V -1e-4 H 2.3594 v -15.312 H 7.25 v 2.2344 c 0.73828,-0.88281 1.5195,-1.5391 2.3438,-1.9688 0.83203,-0.42578 1.75,-0.64062 2.75,-0.64062 1.7695,0 3.1133,0.54688 4.0312,1.6406 0.91406,1.0859 1.375,2.6562 1.375,4.7188 z"
         id="path250" />
    </symbol>
    <symbol
       id="v"
       overflow="visible">
      <path
         d="m 2.5781,-20.406 h 5.25 v 7.4375 l 7.5938,-7.4375 h 6.1094 l -9.8281,9.6562 10.844,10.75 H 15.9534 L 7.8284,-8.0467 V 2e-4 h -5.25 z"
         id="path253" />
    </symbol>
    <symbol
       id="u"
       overflow="visible">
      <path
         d="M 2.3594,-15.312 H 7.25 V 0 H 2.3594 Z m 0,-5.9688 H 7.25 v 4 H 2.3594 Z"
         id="path256" />
    </symbol>
    <symbol
       id="t"
       overflow="visible">
      <path
         d="m 0.98438,-15.312 h 4.7656 l 2.5625,10.547 2.5781,-10.547 h 4.0938 l 2.5781,10.438 2.5781,-10.438 h 4.75 L 20.85938,0 h -5.3438 L 12.93748,-10.531 10.35938,0 h -5.3438 z"
         id="path259" />
    </symbol>
    <symbol
       id="s"
       overflow="visible">
      <path
         d="m 12.422,-21.281 v 3.2188 H 9.7189 c -0.6875,0 -1.1719,0.125 -1.4531,0.375 -0.27344,0.25 -0.40625,0.6875 -0.40625,1.3125 v 1.0625 h 4.1875 v 3.5 H 7.85955 V -2e-4 h -4.8906 v -11.812 h -2.4375 v -3.5 h 2.4375 v -1.0625 c 0,-1.6641 0.46094,-2.8984 1.3906,-3.7031 0.92578,-0.80078 2.3672,-1.2031 4.3281,-1.2031 z"
         id="path262" />
    </symbol>
    <symbol
       id="d"
       overflow="visible">
      <path
         d="m 9.6406,-12.188 c -1.0859,0 -1.9141,0.39062 -2.4844,1.1719 -0.57422,0.78125 -0.85938,1.9062 -0.85938,3.375 0,1.4688 0.28516,2.5938 0.85938,3.375 0.57031,0.77344 1.3984,1.1562 2.4844,1.1562 1.0625,0 1.875,-0.38281 2.4375,-1.1562 0.57031,-0.78125 0.85938,-1.9062 0.85938,-3.375 0,-1.4688 -0.28906,-2.5938 -0.85938,-3.375 -0.5625,-0.78125 -1.375,-1.1719 -2.4375,-1.1719 z m 0,-3.5 c 2.6328,0 4.6914,0.71484 6.1719,2.1406 1.4766,1.418 2.2188,3.3867 2.2188,5.9062 0,2.5117 -0.74219,4.4805 -2.2188,5.9062 C 14.332,-0.317 12.2734,0.39 9.6406,0.39 6.9922,0.39 4.9258,-0.31703 3.4375,-1.735 1.9453,-3.1608 1.2031,-5.1295 1.2031,-7.6412 c 0,-2.5195 0.74219,-4.4883 2.2344,-5.9062 1.4883,-1.4258 3.5547,-2.1406 6.2031,-2.1406 z"
         id="path265" />
    </symbol>
    <symbol
       id="r"
       overflow="visible">
      <path
         d="m 16.547,-12.766 c 0.61328,-0.94531 1.3477,-1.6719 2.2031,-2.1719 0.85156,-0.5 1.7891,-0.75 2.8125,-0.75 1.7578,0 3.0977,0.54688 4.0156,1.6406 0.92578,1.0859 1.3906,2.6562 1.3906,4.7188 V -4e-4 h -4.9219 v -7.9844 -0.35938 c 0.0078,-0.13281 0.01563,-0.32031 0.01563,-0.5625 0,-1.082 -0.16406,-1.8633 -0.48438,-2.3438 -0.3125,-0.48828 -0.82422,-0.73438 -1.5312,-0.73438 -0.92969,0 -1.6484,0.38672 -2.1562,1.1562 -0.51172,0.76172 -0.77344,1.8672 -0.78125,3.3125 v 7.5156 h -4.9219 v -7.9844 c 0,-1.6953 -0.14844,-2.7852 -0.4375,-3.2656 -0.29297,-0.48828 -0.8125,-0.73438 -1.5625,-0.73438 -0.9375,0 -1.6641,0.38672 -2.1719,1.1562 -0.51172,0.76172 -0.76562,1.8594 -0.76562,3.2969 v 7.5312 h -4.9219 v -15.312 h 4.9219 v 2.2344 c 0.60156,-0.86328 1.2891,-1.5156 2.0625,-1.9531 0.78125,-0.4375 1.6406,-0.65625 2.5781,-0.65625 1.0625,0 2,0.25781 2.8125,0.76562 0.8125,0.51172 1.4258,1.2305 1.8438,2.1562 z"
         id="path268" />
    </symbol>
    <symbol
       id="q"
       overflow="visible">
      <path
         d="M 17.75,-9.3281 V 0 h -4.9219 v -7.1094 c 0,-1.3438 -0.03125,-2.2656 -0.09375,-2.7656 -0.0625,-0.5 -0.16797,-0.86719 -0.3125,-1.1094 -0.1875,-0.3125 -0.44922,-0.55469 -0.78125,-0.73438 -0.32422,-0.17578 -0.69531,-0.26562 -1.1094,-0.26562 -1.0234,0 -1.8242,0.39844 -2.4062,1.1875 -0.58594,0.78125 -0.875,1.8711 -0.875,3.2656 V -1e-4 H 2.3594 v -21.281 H 7.25 v 8.2031 c 0.73828,-0.88281 1.5195,-1.5391 2.3438,-1.9688 0.83203,-0.42578 1.75,-0.64062 2.75,-0.64062 1.7695,0 3.1133,0.54688 4.0312,1.6406 0.91406,1.0859 1.375,2.6562 1.375,4.7188 z"
         id="path271" />
    </symbol>
    <symbol
       id="p"
       overflow="visible">
      <path
         d="m 2.5781,-20.406 h 5.875 l 7.4219,14 v -14 h 4.9844 V 0 h -5.875 L 7.5625,-14 V 0 H 2.5781 Z"
         id="path274" />
    </symbol>
    <symbol
       id="o"
       overflow="visible">
      <path
         d="m 2.1875,-5.9688 v -9.3438 h 4.9219 v 1.5312 c 0,0.83594 -0.00781,1.875 -0.015625,3.125 -0.011719,1.25 -0.015625,2.0859 -0.015625,2.5 0,1.2422 0.03125,2.1328 0.09375,2.6719 0.070313,0.54297 0.17969,0.93359 0.32812,1.1719 0.20703,0.32422 0.47266,0.57422 0.79688,0.75 0.32031,0.16797 0.69141,0.25 1.1094,0.25 1.0195,0 1.8203,-0.39062 2.4062,-1.1719 0.58203,-0.78125 0.875,-1.8672 0.875,-3.2656 v -7.5625 h 4.8906 V -6e-4 H 12.6875 V -2.2194 C 11.94531,-1.32096 11.1641,-0.6608 10.3437,-0.235 9.51948,0.17906 8.6093,0.39 7.6093,0.39 5.8476,0.39 4.5038,-0.14906 3.5781,-1.235 2.64841,-2.317 2.1875,-3.8952 2.1875,-5.9694 Z"
         id="path277" />
    </symbol>
    <symbol
       id="n"
       overflow="visible">
      <path
         d="m 2.5781,-20.406 h 8.7344 c 2.5938,0 4.582,0.57812 5.9688,1.7344 1.3945,1.1484 2.0938,2.7891 2.0938,4.9219 0,2.1367 -0.69922,3.7812 -2.0938,4.9375 -1.3867,1.1562 -3.375,1.7344 -5.9688,1.7344 H 7.8281 V 3e-4 h -5.25 z m 5.25,3.8125 v 5.7031 H 10.75 c 1.0195,0 1.8047,-0.25 2.3594,-0.75 0.5625,-0.5 0.84375,-1.2031 0.84375,-2.1094 0,-0.91406 -0.28125,-1.6172 -0.84375,-2.1094 -0.55469,-0.48828 -1.3398,-0.73438 -2.3594,-0.73438 z"
         id="path280" />
    </symbol>
    <symbol
       id="m"
       overflow="visible">
      <path
         d="M 2.3594,-15.312 H 7.25 v 15.031 c 0,2.0508 -0.49609,3.6172 -1.4844,4.7031 -0.98047,1.082 -2.4062,1.625 -4.2812,1.625 H -0.9375 V 2.8283 h 0.85938 c 0.92578,0 1.5625,-0.21094 1.9062,-0.625 0.35156,-0.41797 0.53125,-1.2461 0.53125,-2.4844 z m 0,-5.9688 H 7.25 v 4 H 2.3594 Z"
         id="path283" />
    </symbol>
    <symbol
       id="l"
       overflow="visible">
      <path
         d="m 14.719,-14.828 v 3.9844 c -0.65625,-0.45703 -1.3242,-0.79688 -2,-1.0156 -0.66797,-0.21875 -1.3594,-0.32812 -2.0781,-0.32812 -1.3672,0 -2.4336,0.40234 -3.2031,1.2031 -0.76172,0.79297 -1.1406,1.9062 -1.1406,3.3438 0,1.4297 0.37891,2.543 1.1406,3.3438 0.76953,0.79297 1.8359,1.1875 3.2031,1.1875 0.75781,0 1.4844,-0.10938 2.1719,-0.32812 0.6875,-0.22656 1.3203,-0.56641 1.9062,-1.0156 v 4 c -0.76172,0.28125 -1.5391,0.48828 -2.3281,0.625 -0.78125,0.14453 -1.5742,0.21875 -2.375,0.21875 -2.7617,0 -4.9219,-0.70703 -6.4844,-2.125 -1.5547,-1.4141 -2.3281,-3.3828 -2.3281,-5.9062 0,-2.5312 0.77344,-4.5039 2.3281,-5.9219 1.5625,-1.4141 3.7227,-2.125 6.4844,-2.125 0.80078,0 1.5938,0.07422 2.375,0.21875 0.78125,0.13672 1.5547,0.35156 2.3281,0.64062 z"
         id="path286" />
    </symbol>
  </defs>
  <g
     id="g425"
     transform="translate(-124.25481,-14.2247)">
    <path
       d="m 316.52,522.9 c -8.5,-10.137 -25.387,-20.176 -39.328,-20.457 -0.20703,-0.0117 -0.42188,-0.0273 -0.61719,-0.0273 -17.977,0 -38.59,17.602 -43.176,29.02 -0.93359,2.3125 -1.6406,5.4414 0.23437,7.2461 3.875,3.7227 22.176,6.4219 43.52,6.4219 20.637,0 37.32,-2.5586 42.492,-6.5352 2.3086,-1.7656 2.8633,-4.2969 1.6953,-7.7344 -0.86719,-2.5273 -2.5469,-5.2344 -4.8203,-7.9336 z"
       id="path291" />
    <path
       d="m 529.69,530.84 c -4.1172,-12.141 -27.004,-28.422 -44.762,-28.422 -3.1484,0 -6.3711,0.57031 -9.5703,1.5195 -8.5,2.5156 -16.828,7.9062 -23.199,13.82 -4.9766,4.6211 -8.7539,9.5547 -10.41,13.676 -0.92578,2.3125 -1.6406,5.4414 0.24219,7.2461 3.875,3.7227 22.172,6.4219 43.52,6.4219 20.629,0 37.301,-2.5586 42.48,-6.5352 2.3125,-1.7617 2.8711,-4.2891 1.6992,-7.7266 z"
       id="path293" />
    <path
       d="m 235.36,305.13 c 0.8125,-7.5586 1.9258,-14.996 3.3281,-22.25 -1.7578,-0.35156 -3.5234,-0.70703 -5.2852,-1.0625 -1.0312,5.5703 -2.1445,11.469 -3.332,17.629 -0.28516,1.4492 -0.57812,2.9219 -0.85547,4.4023 1.3711,0.28516 2.75,0.57031 4.1055,0.83984 0.67578,0.14844 1.3555,0.30078 2.0391,0.44141 z"
       id="path295" />
    <path
       d="m 204.11,298.78 c 4.8164,0.95703 9.7148,1.9375 14.609,2.9062 2.4258,0.5 4.8555,1.0078 7.2695,1.5078 0.3125,-1.4688 0.62891,-2.9414 0.93359,-4.375 1.3281,-6.1133 2.625,-11.988 3.8633,-17.5 -5.6953,-1.1797 -11.387,-2.3633 -16.996,-3.5117 -1.9531,-0.41406 -3.8789,-0.82422 -5.8125,-1.2383 -0.84375,4.2656 -1.707,8.5742 -2.5586,12.891 -0.63672,3.0859 -1.2695,6.1602 -1.9023,9.2188 0.20312,0.0352 0.39844,0.0625 0.59375,0.10156 z"
       id="path297" />
    <path
       d="m 233.82,331.27 c 0.0937,-7.6602 0.48047,-15.227 1.1875,-22.676 -0.80078,-0.15625 -1.5898,-0.30078 -2.3984,-0.45312 -1.3555,-0.27344 -2.7266,-0.54297 -4.0938,-0.81641 -0.57031,2.9297 -1.1523,5.9023 -1.7422,8.9141 -0.86719,4.3164 -1.7461,8.7188 -2.6367,13.109 3.2188,0.64453 6.4492,1.2852 9.6836,1.9219 z"
       id="path299" />
    <path
       d="m 180.12,321.18 c 4.5625,0.78516 9.5977,1.6641 14.941,2.6484 0.34766,-1.875 0.70703,-3.7852 1.0625,-5.7188 0.91406,-4.6914 1.7852,-9.5547 2.7812,-14.469 0.14453,-0.75781 0.30859,-1.5234 0.45312,-2.2891 -3.4062,-0.72656 -6.7812,-1.4492 -10.062,-2.1602 -4.1445,-0.89453 -8.1406,-1.7734 -11.977,-2.6484 -0.41016,1.8828 -0.82422,3.7578 -1.2148,5.5898 -1.3672,6.2812 -2.6992,12.242 -3.9609,17.711 2.4609,0.39844 5.125,0.83594 7.9766,1.3359 z"
       id="path301" />
    <path
       d="m 228.19,383.41 c 1.9922,0.38672 4.0547,0.75781 6.1211,1.1367 -0.25781,-7.5664 -0.37891,-15.281 -0.44922,-23.102 -4.4414,-0.95312 -8.8125,-1.8867 -13.047,-2.8008 -0.89453,-0.19531 -1.7852,-0.37891 -2.6758,-0.58203 -0.6875,3.207 -1.3711,6.4102 -2.0391,9.5195 -0.98438,4.5625 -1.9727,9 -2.918,13.25 4.5547,0.73828 9.6172,1.5977 15.008,2.5781 z"
       id="path303" />
    <path
       d="m 152.14,289.45 c 3.5898,0.57031 7.8438,1.2383 12.605,2.0781 3.0625,0.50781 6.3438,1.0938 9.7891,1.707 0.33984,-1.8203 0.69531,-3.6406 1.0625,-5.4883 0.92578,-4.6758 1.8711,-9.4414 2.8164,-14.184 0.21875,-1.082 0.44922,-2.1602 0.66797,-3.2422 -4.5547,-1.0078 -8.8828,-1.9883 -12.902,-2.918 -3.0312,-0.68359 -5.8633,-1.3477 -8.5234,-1.9766 -0.32422,1.5117 -0.65625,3 -0.95703,4.4805 -1.2617,5.8008 -2.5078,11.199 -3.6406,15.82 -0.3125,1.3047 -0.61719,2.5469 -0.91797,3.7227 z"
       id="path305" />
    <path
       d="m 162.98,238.08 c 6.6211,1.1523 14.113,2.5039 22.102,4.0078 1.6445,-7.5039 3.2422,-14.5 4.6797,-20.613 0.10547,-0.44141 0.20703,-0.86719 0.3125,-1.3086 -0.39844,-0.0859 -0.78906,-0.15625 -1.1758,-0.24219 -2.6445,-0.57031 -5.2812,-1.1367 -7.8867,-1.6914 -2.6094,-0.55469 -5.1445,-1.1758 -7.6172,-1.7461 -2.3242,-0.54297 -4.5703,-1.082 -6.707,-1.625 -0.11719,0.8125 -0.23438,1.6367 -0.36328,2.5039 -0.67578,4.7031 -1.5352,10.18 -2.5352,16.023 -0.27344,1.5352 -0.53906,3.1133 -0.80859,4.6914 z"
       id="path307" />
    <path
       d="m 233.84,357.89 c -0.0391,-6.7383 -0.0391,-13.547 -0.0391,-20.418 v -2.4961 c -0.0664,0 -0.12891,-0.0156 -0.19141,-0.0352 -3.3984,-0.71094 -6.7891,-1.4062 -10.164,-2.1016 -0.043,0.24219 -0.0937,0.48047 -0.14062,0.72266 -1.2109,5.8008 -2.4258,11.586 -3.6133,17.305 -0.29688,1.3945 -0.59375,2.7734 -0.89453,4.1602 0.88672,0.15625 1.7656,0.33203 2.6562,0.5 4.0156,0.76953 8.168,1.5664 12.387,2.3633 z"
       id="path309" />
    <path
       d="m 219.66,328.46 c 0.3125,0.0742 0.63672,0.125 0.95312,0.19531 0.91797,-4.4023 1.8359,-8.7812 2.7383,-13.121 0.63672,-2.9844 1.2812,-5.9414 1.9023,-8.8555 -2.4141,-0.48828 -4.8281,-0.96875 -7.2422,-1.4375 -4.8945,-1.0234 -9.7812,-2.0273 -14.594,-3.0234 -0.19531,-0.043 -0.39062,-0.0898 -0.58984,-0.12891 -0.15625,0.75781 -0.3125,1.5117 -0.46094,2.2461 -1.0039,4.918 -2.0938,9.7344 -3.0859,14.414 -0.41016,1.9023 -0.81641,3.7695 -1.2266,5.6094 2.4062,0.44141 4.8672,0.89453 7.3711,1.3828 4.6055,0.88672 9.3828,1.793 14.234,2.7188 z"
       id="path311" />
    <path
       d="m 192.1,350.31 c 1.5664,0.25781 3.2148,0.53125 4.9336,0.82422 5.5156,0.94141 11.73,2.043 18.379,3.2695 0.27344,-1.4219 0.55469,-2.8281 0.82813,-4.25 1.1523,-5.7188 2.3203,-11.52 3.4844,-17.316 0.0547,-0.25781 0.11328,-0.5 0.15625,-0.73828 -0.3125,-0.0625 -0.62891,-0.12891 -0.93359,-0.20312 -4.8281,-1.0234 -9.5742,-2.043 -14.168,-3.0312 -2.5078,-0.53906 -4.9688,-1.0742 -7.3711,-1.6172 -1.3555,6.1133 -2.6641,11.84 -3.8711,16.973 -0.49219,2.1523 -0.97266,4.168 -1.4375,6.0898 z"
       id="path313" />
    <path
       d="m 251.6,475.18 c -1.3945,-2.8008 -2.6719,-5.707 -3.8594,-8.6758 -0.29297,1.2109 -0.55859,2.3633 -0.80469,3.3945 -1.3281,5.4336 -2.0898,8.5273 -2.0898,8.5273 0,0 0.50781,-3.1523 1.3945,-8.6758 0.25781,-1.4609 0.54297,-3.1133 0.83984,-4.8984 -2.918,-7.5938 -5.1875,-15.715 -6.9648,-24.238 -4.0078,-1.082 -6.3672,-1.7734 -6.3672,-1.7734 0,0 2.2891,0.25391 6.1602,0.78516 -1.6406,-8.0938 -2.8438,-16.566 -3.7188,-25.316 -1.1992,-0.30078 -2.3672,-0.57031 -3.5,-0.85156 -0.42578,1.8633 -0.83984,3.707 -1.2422,5.4766 -2.1172,9.4414 -4.0547,17.289 -5.3242,22.785 -1.3438,5.4805 -2.1094,8.6289 -2.1094,8.6289 0,0 0.50781,-3.1875 1.4102,-8.7695 0.97266,-5.5625 2.25,-13.535 3.9688,-23.07 0.32031,-1.8047 0.66016,-3.6953 1.0117,-5.6016 -0.004,0 -0.0156,-0.0156 -0.0234,-0.0156 -10.113,-2.4883 -16.801,-4.4648 -16.801,-4.4648 0,0 6.9141,0.78516 17.191,2.4297 1.1406,-6.2812 2.4023,-13.074 3.7578,-20.195 -0.0352,-0.85156 -0.0742,-1.7266 -0.10547,-2.5938 -2.3359,-0.5 -4.6406,-1.0234 -6.8867,-1.5078 -5.3594,-1.2109 -10.375,-2.3906 -14.863,-3.4844 -1.1328,5.0195 -2.2109,9.75 -3.2266,14.129 -1.9805,8.6562 -3.7969,15.836 -4.9844,20.883 -1.2383,5.0352 -1.9883,7.9062 -1.9883,7.9062 0,0 0.44141,-2.9414 1.293,-8.0547 0.87891,-5.1016 2.043,-12.422 3.6289,-21.164 0.78906,-4.4531 1.6641,-9.2695 2.6133,-14.359 -10,-2.4688 -16.594,-4.418 -16.594,-4.418 0,0 6.8164,0.76562 16.973,2.3906 0.8125,-4.3125 1.6641,-8.7969 2.5547,-13.434 0.62109,-3.1523 1.2422,-6.3672 1.8828,-9.6094 -6.6016,-1.4688 -12.773,-2.8711 -18.223,-4.168 -1.7148,-0.39063 -3.3594,-0.79688 -4.9219,-1.1758 -0.98047,4.0195 -1.8477,7.4609 -2.5039,10.176 -1.0742,4.3359 -1.7344,6.8086 -1.7344,6.8086 0,0 0.34766,-2.5312 1.0469,-6.9375 0.46484,-2.7656 1.0039,-6.293 1.668,-10.414 -4.2188,-1.0234 -7.8125,-1.9492 -10.605,-2.6133 -4.1055,-1.0234 -6.4453,-1.6641 -6.4453,-1.6641 0,0 2.4023,0.32422 6.5859,0.96484 2.8164,0.46875 6.4688,1.0312 10.73,1.7266 0.32422,-1.9766 0.67578,-4.0391 1.0586,-6.2266 0.89062,-5.2188 1.9219,-11.016 3.0586,-17.199 -5.3203,-1.1797 -10.316,-2.3281 -14.836,-3.3945 -2.832,-0.65625 -5.4805,-1.293 -7.9141,-1.875 -0.39844,1.7188 -0.78906,3.4102 -1.1719,5.0273 -1.6445,7.0781 -3.1758,12.938 -4.1719,17.074 -1.0312,4.1055 -1.668,6.4531 -1.668,6.4531 0,0 0.33203,-2.4023 0.98047,-6.5977 0.6875,-4.1953 1.5625,-10.191 2.8125,-17.359 0.27344,-1.6641 0.57812,-3.3945 0.89062,-5.1914 -2.8555,-0.69531 -5.3633,-1.3203 -7.4375,-1.8203 -4.2578,-1.0586 -6.6797,-1.7188 -6.6797,-1.7188 0,0 2.4883,0.33984 6.8203,1.0234 2.0898,0.33984 4.625,0.73828 7.5273,1.2109 0.96484,-5.543 2.0664,-11.598 3.2656,-17.953 0.36328,-1.8633 0.71875,-3.7695 1.0742,-5.6914 -3.4102,-0.78516 -6.668,-1.5195 -9.7031,-2.2461 -4.7422,-1.0938 -8.9336,-2.1328 -12.477,-3.0117 -1.6445,6.4844 -2.8398,10.523 -2.8398,10.523 0,0 0.40234,-4.2383 1.3047,-10.902 -1.3047,-0.3125 -2.5078,-0.60938 -3.5898,-0.86328 -4.2344,-1.0547 -6.6523,-1.707 -6.6523,-1.707 0,0 2.4805,0.32422 6.793,1.0078 1.082,0.18359 2.2734,0.37109 3.5859,0.58203 0.16406,-1.2266 0.34766,-2.5039 0.54688,-3.8516 0.67578,-4.7031 1.5352,-10.191 2.5469,-16.031 0.26953,-1.5195 0.53125,-3.0859 0.80469,-4.6484 -3.7227,-0.89453 -6.9844,-1.6758 -9.6367,-2.3008 -5.1758,-1.2383 -8.125,-2.0039 -8.125,-2.0039 0,0 3.0117,0.46094 8.2656,1.3203 2.6836,0.45312 5.9688,0.99219 9.7422,1.6367 0.16797,-1.0078 0.34766,-2 0.53906,-3.0117 0.57812,-3.0508 1.1602,-6.1719 1.7422,-9.2773 0.62891,-3.1016 1.25,-6.2109 1.8633,-9.2695 0.15625,-0.78516 0.33203,-1.5625 0.49219,-2.3477 -6.8047,-1.5898 -12.488,-3.0117 -16.621,-3.9922 -4.6602,-1.1367 -7.3086,-1.8477 -7.3086,-1.8477 0,0 2.7148,0.39844 7.4492,1.1523 4.1875,0.71094 9.9805,1.6055 16.867,2.8008 0.34766,-1.5977 0.6875,-3.168 1.0195,-4.7031 1.2617,-5.8125 2.5039,-11.199 3.6406,-15.82 0.21094,-0.88672 0.42188,-1.7266 0.62891,-2.5469 -1.7344,-0.44141 -3.4102,-0.88672 -4.9609,-1.293 -7.8438,-2.0625 -13.016,-3.7695 -13.016,-3.7539 0,0 5.4141,0.5 13.441,1.7188 1.6133,0.24219 3.3672,0.51562 5.168,0.8125 1.6133,-6.3398 2.7812,-10.277 2.7812,-10.277 0,0 -0.39062,4.0664 -1.2617,10.516 2.2227,0.37109 4.5625,0.78516 6.9844,1.2109 2.4922,0.46484 5.0742,0.91406 7.6836,1.4336 2.6094,0.51953 5.2578,1.0547 7.9141,1.5781 0.42578,0.0859 0.84375,0.18359 1.2812,0.26953 1.1914,-4.9336 2.2617,-9.1016 3.0234,-12.242 1.0312,-4.1094 1.6641,-6.4531 1.6641,-6.4531 0,0 -0.32031,2.4023 -0.97266,6.5977 -0.52734,3.1992 -1.1719,7.4492 -1.9922,12.465 1.6367,0.35156 3.2773,0.71094 4.8906,1.0547 2.5977,0.53906 5.1445,1.1758 7.6172,1.7461 4.0898,0.95312 7.9297,1.9023 11.355,2.8008 0.62109,-2.5039 1.1719,-4.7383 1.625,-6.6133 1.0742,-4.3359 1.7344,-6.793 1.7344,-6.793 0,0 -0.34766,2.5312 -1.0469,6.9375 -0.32031,1.9219 -0.68359,4.207 -1.0938,6.793 0.28516,0.0742 0.58984,0.15625 0.86719,0.23047 7.8516,2.0625 13.02,3.7695 13.02,3.7695 0,0 -5.4141,-0.5 -13.441,-1.7188 -0.25781,-0.043 -0.53125,-0.0859 -0.79688,-0.12891 -0.46094,2.8164 -0.96875,5.9297 -1.5586,9.2969 -0.69531,4.0664 -1.4766,8.5 -2.3281,13.188 2.6719,0.54297 5.3555,1.0625 8.0312,1.6055 5.3594,1.1094 10.719,2.207 15.992,3.2969 0.0234,0.0156 0.0352,0.0156 0.0508,0.0156 0.37109,-1.5234 0.69922,-2.918 1.0039,-4.1836 1.2305,-5.0352 1.9805,-7.9062 1.9805,-7.9062 0,0 -0.44141,2.9297 -1.293,8.0469 -0.22266,1.2812 -0.46484,2.6992 -0.71875,4.2344 2.4883,0.54297 4.9609,1.0625 7.4102,1.5898 4.4922,-14.156 10.129,-27.445 16.754,-39.66 -26.738,-19.488 -53.867,-30.664 -77.453,-30.664 -12.387,0 -23.34,3.0977 -32.559,9.2109 -21.969,14.559 -31.723,44.566 -27.457,84.5 4.2344,39.574 21.75,84.273 49.312,125.87 l 1.5586,2.3594 c 27.352,41.266 51.984,78.473 79.871,99.895 0,0 3.7539,-2.1328 6.7148,-3.2266 2.9609,-1.0742 7.0664,-2.1055 7.0664,-2.1055 -7.5977,-7.4023 -13.16,-15.277 -18.16,-25.293 z"
       id="path315" />
    <path
       d="m 235.93,411.68 c -0.29297,-3.1016 -0.53125,-6.2383 -0.75,-9.4258 -0.67578,3.0859 -1.3438,6.0977 -1.9883,8.9805 0.89063,0.14062 1.8047,0.28125 2.7383,0.44531 z"
       id="path317" />
    <path
       d="m 235.61,269.61 c -0.48828,2.7422 -1.0195,5.6445 -1.5625,8.6562 1.7734,0.35156 3.5625,0.72266 5.332,1.0938 1.5508,-7.4766 3.4062,-14.766 5.5508,-21.863 -2.3008,-0.46094 -4.6406,-0.89453 -6.9883,-1.3477 -0.65625,3.918 -1.4297,8.457 -2.332,13.461 z"
       id="path319" />
    <path
       d="m 212.84,251.1 c -0.53125,2.918 -1.0977,5.9141 -1.668,8.9727 -0.81641,4.2773 -1.6641,8.6875 -2.5273,13.148 1.9492,0.38672 3.8867,0.75781 5.8633,1.1367 5.6328,1.125 11.363,2.2617 17.09,3.3984 0.67578,-2.9727 1.3398,-5.8398 1.9727,-8.5586 1.1367,-4.9609 2.2109,-9.4258 3.1484,-13.293 -5.2578,-1.0352 -10.602,-2.1016 -15.938,-3.168 -2.6484,-0.54297 -5.2969,-1.0938 -7.9414,-1.6367 z"
       id="path321" />
    <path
       d="m 200.04,298 c 0.60938,-3.0898 1.2227,-6.1758 1.8438,-9.2695 0.89453,-4.3242 1.7812,-8.6289 2.6719,-12.898 -2.6719,-0.57031 -5.3242,-1.1367 -7.9258,-1.6914 -4.8398,-1.0352 -9.5195,-2.0625 -14.012,-3.0391 -0.21094,1.0625 -0.42188,2.1172 -0.63281,3.1797 -0.98047,4.75 -1.9727,9.4883 -2.9336,14.164 -0.37109,1.8125 -0.75781,3.6133 -1.1367,5.3984 3.8516,0.69922 7.875,1.4375 12.027,2.2188 3.2812,0.62109 6.6758,1.2812 10.098,1.9375 z"
       id="path323" />
    <path
       d="m 157.99,263.86 c 2.6836,0.46094 5.5625,0.95312 8.6055,1.5117 4.0586,0.71094 8.4336,1.4961 13.031,2.3477 0.57812,-2.7891 1.1523,-5.5703 1.7266,-8.3164 1.0039,-4.6641 1.9805,-9.25 2.9336,-13.688 0.0391,-0.21094 0.0937,-0.42578 0.14063,-0.63672 -7.9141,-1.7344 -15.309,-3.3984 -21.836,-4.9062 -0.125,0.73828 -0.25391,1.4766 -0.39844,2.2305 -0.57812,3.0703 -1.1602,6.1836 -1.7422,9.2969 -0.61719,3.1016 -1.2422,6.1992 -1.8633,9.2578 -0.18359,0.97266 -0.39062,1.9414 -0.59766,2.9023 z"
       id="path325" />
    <path
       d="m 215.95,224.87 c -3.4961,-0.54297 -7.3594,-1.1797 -11.457,-1.9336 -2.4883,-0.46484 -5.0742,-0.89453 -7.6758,-1.4336 -1.5781,-0.3125 -3.1758,-0.62891 -4.7773,-0.95312 -0.0742,0.45312 -0.14453,0.89453 -0.23047,1.3477 -1.0469,6.1719 -2.2969,13.215 -3.6953,20.754 0.60938,0.11719 1.2227,0.23047 1.8438,0.33984 5.0352,0.96875 10.242,1.9766 15.527,3 1.7539,0.33984 3.5273,0.69531 5.2852,1.0547 1.0469,-4.6641 2.0547,-9.0664 3,-13.074 0.77734,-3.3164 1.5078,-6.3398 2.1797,-9.1016 z"
       id="path327" />
    <path
       d="m 189.32,246.14 c -0.59766,-0.14062 -1.1875,-0.26953 -1.7852,-0.39844 -0.0352,0.20312 -0.0742,0.39844 -0.10547,0.59375 -0.85156,4.4648 -1.7344,9.0703 -2.6328,13.766 -0.54688,2.7266 -1.0859,5.5 -1.6406,8.2617 4.5312,0.83984 9.2383,1.7344 14.102,2.6602 2.6133,0.50781 5.2852,1.0234 7.9727,1.5469 0.95312,-4.4648 1.8984,-8.8711 2.8047,-13.121 0.66016,-3.0586 1.3164,-6.043 1.9648,-8.9414 -1.7422,-0.35156 -3.4844,-0.71094 -5.207,-1.0625 -5.2695,-1.1328 -10.457,-2.2344 -15.473,-3.3047 z"
       id="path329" />
    <path
       d="m 351.29,252.12 c 2.6055,2.2734 7.5273,3.625 13.184,3.625 5.0625,0 9.6367,-1.082 12.777,-2.9688 3.1484,1.8867 7.7188,2.9688 12.777,2.9688 5.6562,0 10.578,-1.3672 13.176,-3.625 4.9453,-4.2969 3.6289,-17.086 3.2305,-20.211 -1.5977,0.19531 -2.7227,0.25391 -2.7227,0.25391 0.62891,5.3711 0.86719,15.152 -2.3008,17.914 -2.082,1.8047 -6.4453,2.9414 -11.379,2.9414 -4.457,0 -8.625,-0.95312 -11.324,-2.5469 v -22.898 l -1.457,-1.7188 -1.3789,1.7188 -0.0781,22.898 c -2.6875,1.5977 -6.8828,2.5469 -11.324,2.5469 -4.9336,0 -9.2969,-1.1367 -11.391,-2.9414 -3.15231,-2.7617 -2.9414,-12.324 -2.3203,-17.711 0,0 -1.3711,-0.043 -2.7227,-0.23047 -0.41406,3.4141 -1.6094,15.77 3.2539,19.984 z"
       id="path331" />
    <path
       d="m 485.79,211.34 c -10.801,8.0469 -21.723,14.387 -32.109,19.273 -7.2344,3.3711 -14.191,6.1133 -20.746,8.2891 -6.5742,2.1055 -12.695,3.8086 -18.312,4.9609 -2.4258,0.52734 -4.7266,0.95312 -6.9336,1.332 -0.50391,3.2812 -1.5195,6.2734 -3.4258,7.9336 -2.7539,2.3906 -7.9336,3.8242 -13.867,3.8242 -5.1641,0 -9.8555,-1.0625 -13.156,-2.9727 -3.2969,1.9023 -7.9844,2.9727 -13.148,2.9727 -5.9258,0 -11.109,-1.4219 -13.859,-3.8242 -2.0312,-1.7734 -3.0469,-5.0273 -3.5117,-8.5391 -1.1719,-0.23047 -2.3516,-0.46094 -3.5742,-0.72266 -5.6094,-1.1523 -11.738,-2.8555 -18.312,-4.9609 -6.5508,-2.1719 -13.512,-4.918 -20.746,-8.2891 -11.121,-5.2461 -22.875,-12.141 -34.422,-21.023 -20.121,33.938 -32.234,77.504 -32.234,124.96 v 2.9219 c -0.004,52.031 -0.0156,101.17 17.422,136.09 5.0234,10.051 11.375,18.699 19.117,26.008 h 0.0547 c 0.0664,0.0547 0.12891,0.125 0.19141,0.19531 0.86719,-0.0859 1.7305,-0.125 2.5859,-0.125 10.332,0 22.008,4.9609 31.297,11.625 5.4727,3.9531 10.102,8.4883 13.098,12.926 0.0391,0.0156 0.0898,0.0273 0.13281,0.043 0.0352,0.043 0.0781,0.10156 0.11719,0.14062 15.977,4.1211 34.547,6.1445 55.945,6.1445 27.137,0 49.734,-3.2422 68.254,-9.9102 8.0586,-9.3398 21.465,-18.652 34.641,-20.586 7.8906,-7.3633 14.32,-16.105 19.41,-26.27 17.426,-34.91 17.426,-84.055 17.426,-136.09 v -2.9297 c 0.008,-46.73 -11.77,-89.695 -31.332,-123.39 z M 466.7,358.38 c 3.2891,12.195 5.0742,25.262 5.0742,38.852 0,66.703 -42.852,120.96 -95.535,120.96 -18.043,0 -34.922,-6.3711 -49.336,-17.414 -27.535,-21.254 -45.965,-59.629 -45.965,-103.36 0,-12.965 1.6406,-25.445 4.6367,-37.16 l -35.488,-48.988 2.3398,-1.6914 33.891,46.781 2.2461,3.0977 6.0039,8.2891 c 0.69922,0.69531 1.4375,1.332 2.1992,1.9492 4.7812,3.9102 10.719,6.043 16.98,6.043 7.1836,0 13.938,-2.8008 19.02,-7.875 10.461,-10.477 10.484,-27.48 0.0742,-37.969 l -0.24219,-0.18359 -21.555,-16.168 -2.3672,-1.7734 -33.402,-25.059 1.7852,-2.3906 33.762,25.336 c 17.137,-20.559 40.254,-33.227 65.66,-33.227 17.309,0 33.551,5.8672 47.555,16.105 6.3047,4.6328 12.156,10.148 17.445,16.418 l 0.0508,-0.0273 c 0.0742,0.0742 0.13281,0.14062 0.20312,0.23047 l 33.039,-23.941 1.5742,2.1797 -32.969,23.867 -2.4023,1.7461 -23.051,16.699 c -10.406,10.496 -10.383,27.496 0.0781,37.941 0.70703,0.71094 1.457,1.3672 2.2188,1.9805 4.793,3.9375 10.758,6.0977 17.051,6.0977 7.1445,0 13.875,-2.7891 18.949,-7.8047 l 7.4766,-9.9961 2.2461,-2.9688 33.465,-44.609 2.1328,1.5898 z"
       id="path333" />
    <path
       d="m 446.08,195.39 c -1.625,-4.1094 -5.0742,-7.4766 -9.0781,-10.035 -4.0312,-2.5703 -8.625,-4.4648 -13.406,-5.9297 -4.7812,-1.4766 -9.7812,-2.5156 -14.855,-3.3086 -10.176,-1.5898 -20.664,-2.1055 -31.188,-2.1055 -10.477,-0.0117 -21,0.46875 -31.188,1.9492 -5.0859,0.76562 -10.102,1.7344 -14.906,3.168 -4.8086,1.3945 -9.4258,3.2148 -13.512,5.6992 -4.043,2.4766 -7.5938,5.7734 -9.2305,9.8516 -1.6875,4.082 -1.043,8.6406 0.89453,12.438 1.9492,3.8359 4.8945,7.0508 8.0703,9.6953 3.1992,2.6445 6.6367,4.8203 10.098,6.5703 6.9453,3.457 13.887,5.6562 20.066,6.6523 6.2344,0.95312 11.777,0.48047 16.145,-0.57031 4.3789,-1.0547 7.6055,-2.6133 9.6758,-3.8086 1.043,-0.60938 1.7812,-1.1367 2.2773,-1.4961 0.5,-0.37109 0.70703,-0.55469 0.71094,-0.55469 l 0.65625,-0.58203 0.59375,0.63672 c 0,0 0.17969,0.20312 0.65625,0.58203 0.45312,0.38672 1.1914,0.92578 2.1953,1.5508 2.0117,1.2539 5.2539,2.7422 9.6562,3.7109 4.3789,0.95312 9.9727,1.1758 16.191,0.33984 6.332,-0.89453 13.254,-2.6602 20.312,-5.9883 3.5039,-1.6445 6.9883,-3.7344 10.207,-6.3555 3.1992,-2.6133 6.1562,-5.8008 8.0742,-9.6367 1.918,-3.8047 2.5039,-8.3789 0.88281,-12.473 z m -68.828,5.0156 c -11.504,0 -20.832,-5.0469 -20.832,-11.262 0,-6.2109 9.3281,-11.258 20.832,-11.258 11.496,0 20.82,5.0469 20.82,11.258 0,6.2109 -9.3242,11.262 -20.82,11.262 z"
       id="path335" />
    <path
       d="m 295.82,95.148 c -9.25,0 -16.762,14.387 -16.762,32.129 0,17.742 7.5039,32.129 16.762,32.129 9.2617,0 16.766,-14.387 16.766,-32.129 0.004,-17.742 -7.5,-32.129 -16.766,-32.129 z m -4.1016,17.926 c -2.8438,0 -5.1445,-2.3008 -5.1445,-5.1445 0,-2.8281 2.3008,-5.1445 5.1445,-5.1445 2.832,0 5.1445,2.3203 5.1445,5.1445 0,2.8438 -2.3125,5.1445 -5.1445,5.1445 z"
       id="path337" />
    <path
       d="m 531.54,136.15 c -0.22266,-1.3789 -0.36328,-2.7734 -0.63672,-4.1484 -1.0625,-5.5156 -2.9688,-10.977 -5.3125,-16.289 -4.6758,-10.645 -11.016,-20.844 -18.363,-30.477 -3.2578,-4.25 -6.6992,-8.3984 -10.336,-12.426 -0.0547,-0.62891 0.14062,-1.2656 0.63672,-1.7188 0.83594,-0.75781 2.1172,-0.68359 2.8906,0.15625 0,0.01172 0.0273,0.02734 0.0273,0.04297 0,0 0.79688,0.93359 2.2188,2.5859 0.68359,0.83594 1.5625,1.8047 2.4883,3 0.94141,1.1758 2.0039,2.5039 3.1484,3.9531 1.1094,1.4961 2.3281,3.1016 3.5938,4.8047 1.1797,1.707 2.4766,3.4844 3.7227,5.3711 8.1016,-7.0039 13.238,-17.344 13.238,-28.902 0,-21.066 -17.09,-38.152 -38.152,-38.152 -12.992,0 -24.449,6.4961 -31.348,16.418 -0.0156,-0.01172 -0.043,-0.04297 -0.0742,-0.05469 -0.85156,1.2539 -1.5625,2.4453 -2.1523,3.5 -0.81641,1.6445 -1.4609,2.9727 -1.7734,3.9258 -0.20703,0.50781 -0.42578,1.043 -0.62109,1.5781 -0.28516,0.66797 -1.0547,1.0078 -1.7344,0.73828 -0.71094,-0.26953 -1.0547,-1.0547 -0.80078,-1.7578 l 0.0156,-0.01172 c 0,0 0.21094,-0.52734 0.60938,-1.5234 0.36328,-1.0234 1.0547,-2.4297 1.9609,-4.2227 0.62891,-1.082 1.3828,-2.3281 2.2734,-3.625 -1.7188,-1.1094 -3.4219,-2.2344 -5.1875,-3.2969 -10.949,-6.4688 -22.688,-11.809 -34.957,-15.605 -6.1836,-1.7461 -12.422,-3.3711 -18.793,-4.25 -3.1758,-0.57031 -6.3633,-0.8125 -9.5547,-1.1094 -1.5664,-0.19531 -3.207,-0.21094 -4.8398,-0.25391 l -4.8398,-0.17578 c -12.875,0.05469 -25.715,2.1016 -38.02,5.7695 -12.273,3.7969 -24.008,9.1406 -34.957,15.625 -1.7578,1.0547 -3.4961,2.1445 -5.2148,3.2539 0.91406,1.3047 1.6641,2.5586 2.2969,3.6523 0.91797,1.793 1.6055,3.1992 1.9727,4.2227 0.39844,0.99609 0.60547,1.5234 0.60547,1.5234 0.27344,0.71094 -0.0664,1.4883 -0.76172,1.7734 -0.70703,0.28516 -1.4961,-0.07422 -1.7695,-0.76562 l -0.004,-0.01172 -0.0352,-0.10156 c 0,0 -0.0234,-0.03906 -0.0508,-0.125 l 0.32422,-0.23047 c -5.1875,-14.914 -19.363,-25.613 -36.055,-25.613 -21.074,0 -38.16,17.086 -38.16,38.168 0,12 5.0664,22.305 13.727,29.301 1.6953,-2.4766 3.4375,-4.75 5.2656,-7.1641 3.5117,-4.6211 7.2695,-9.1289 11.227,-13.492 0.46484,-0.07422 1.4062,0.23047 1.7852,0.55469 0.0117,0.01563 0.0234,0.02734 0.0351,0.04297 0.42188,0.37891 0.57031,0.92578 0.48047,1.4492 -3.8867,4.2773 -7.582,8.6758 -11.031,13.195 -0.61719,0.8125 -1.2148,1.6367 -1.8203,2.457 l 0.37109,-0.26953 c -1.082,1.4766 -2.2227,2.9844 -3.3477,4.6016 -1.2812,1.875 -2.6445,3.7969 -3.9102,5.8281 -1.3164,1.9883 -2.5469,4.0938 -3.7812,6.1836 -0.24609,0.44141 -0.48828,0.87891 -0.74609,1.3398 -1.8711,3.3828 -3.5938,6.8359 -5.1367,10.32 -2.3359,5.3125 -4.2344,10.773 -5.3086,16.289 -0.28125,1.3789 -0.42188,2.7266 -0.63672,4.0938 -0.13281,1.3672 -0.17188,2.9023 -0.25781,4.1836 0.0937,1.3789 0.10156,2.7422 0.25781,4.0938 0.23047,1.3672 0.34766,2.7148 0.66016,4.0547 2.2891,10.746 7.8047,20.301 13.781,28.773 6.1445,8.4297 13.074,15.855 20.266,22.359 14.465,12.98 29.766,22.461 44.016,29.227 7.1406,3.3438 14.016,6.0703 20.5,8.2422 6.4961,2.1016 12.543,3.8086 18.09,4.9609 1.0195,0.23047 1.9883,0.41016 2.9609,0.60938 -0.3125,-4.0547 -0.0234,-8.1328 0.22266,-10.496 -6.3047,-1.0234 -13.113,-3.1289 -20.055,-6.5703 -3.6133,-1.8047 -7.207,-4.0391 -10.602,-6.8203 -3.3711,-2.7891 -6.5508,-6.1836 -8.7578,-10.449 -1.0547,-2.1445 -1.875,-4.5078 -2.0938,-7.0234 -0.25781,-2.5039 0.11328,-5.1172 1.0586,-7.5195 1.9336,-4.8594 5.9414,-8.4844 10.246,-11.172 4.3633,-2.6719 9.1797,-4.5938 14.141,-6.0586 4.9492,-1.4961 10.086,-2.5039 15.266,-3.3086 10.375,-1.5508 21,-2.0898 31.625,-2.1172 10.586,0.0547 21.242,0.60938 31.605,2.2734 5.1797,0.83984 10.293,1.9219 15.23,3.4727 4.9375,1.5352 9.7266,3.5391 14.039,6.3125 4.2734,2.7617 8.1719,6.4844 10.051,11.328 0.90625,2.4023 1.2812,5.0195 1.0352,7.5195 -0.19531,2.5156 -1.0078,4.8789 -2.0625,7.0234 -2.1719,4.2969 -5.3945,7.6953 -8.7852,10.449 -3.4258,2.7422 -7.0859,4.9062 -10.734,6.6133 -6.9766,3.2969 -14,5.0273 -20.203,5.8672 0.26172,2.457 0.58984,6.9492 0.18359,11.301 2.0156,-0.35156 4.0977,-0.75781 6.293,-1.2383 5.5508,-1.1523 11.598,-2.8633 18.094,-4.9609 6.4727,-2.1719 13.352,-4.8984 20.5,-8.2422 14.242,-6.7656 29.535,-16.246 44.012,-29.227 7.1914,-6.5117 14.125,-13.934 20.266,-22.359 5.9688,-8.4844 11.492,-18.027 13.793,-28.773 0.29688,-1.3398 0.42578,-2.6602 0.64844,-3.9922 0.14062,-1.3672 0.15625,-2.8008 0.25781,-4.207 -0.0625,-1.2578 -0.0977,-2.7188 -0.23828,-4.0742 z M 271.67,32.21 c -0.78516,-0.12891 -1.6055,-0.14062 -2.4531,-0.23047 -0.82812,-0.04297 -1.7305,-0.23047 -2.5703,-0.14062 -0.90234,0.03906 -1.8477,0.03906 -2.7734,0.14062 -0.89453,0.14063 -1.8203,0.25391 -2.7422,0.41406 -0.92578,0.23047 -1.8633,0.46484 -2.8008,0.71094 -0.91797,0.32422 -1.8477,0.63672 -2.7656,0.99609 -0.87891,0.42578 -1.793,0.82422 -2.6641,1.2773 -0.84375,0.52734 -1.7266,0.98047 -2.5312,1.5508 -0.78906,0.59375 -1.6133,1.125 -2.3516,1.7656 -1.4961,1.2656 -2.8438,2.6445 -4.0312,4.0664 -0.55469,0.75 -1.1484,1.4609 -1.6406,2.207 -0.46484,0.76562 -0.92969,1.5078 -1.3789,2.2305 -0.375,0.76563 -0.74609,1.5195 -1.1016,2.2305 -0.34766,0.72266 -0.57812,1.4766 -0.85156,2.1719 -0.29297,0.68359 -0.48047,1.3828 -0.64453,2.0508 -0.17578,0.64844 -0.36719,1.2578 -0.49219,1.8594 -0.17969,1.2109 -0.39844,2.2461 -0.47656,3.1133 -0.10156,1.7461 -0.16406,2.7422 -0.16406,2.7422 v 0.02734 c -0.004,0.18359 -0.16406,0.3125 -0.33594,0.29688 -0.17969,0 -0.30859,-0.15625 -0.29688,-0.32422 0,0 0.0391,-1.0234 0.11328,-2.8008 0.0664,-0.89453 0.26172,-1.9648 0.42578,-3.1992 0.11719,-0.60938 0.29688,-1.25 0.46484,-1.9336 0.15625,-0.68359 0.33594,-1.3945 0.61719,-2.1055 0.28125,-0.72266 0.5,-1.4961 0.83984,-2.2461 0.35156,-0.75 0.71875,-1.5195 1.0938,-2.3203 0.44922,-0.76562 0.91406,-1.5352 1.3906,-2.3359 0.5,-0.78516 1.0859,-1.5195 1.6445,-2.3008 1.2031,-1.5078 2.5703,-2.957 4.0938,-4.2969 0.75781,-0.67188 1.6016,-1.2539 2.4141,-1.875 0.82812,-0.59375 1.7344,-1.1094 2.5977,-1.6641 0.90234,-0.5 1.8438,-0.92578 2.7617,-1.3789 0.95312,-0.39844 1.9102,-0.73828 2.8633,-1.0938 0.98047,-0.26953 1.9531,-0.52734 2.918,-0.80078 0.98438,-0.18359 1.9766,-0.32422 2.9414,-0.48047 0.95703,-0.12891 1.8828,-0.12891 2.793,-0.20312 0.98047,-0.10156 1.8555,0.07422 2.75,0.08594 0.89062,0.07422 1.7539,0.08594 2.5859,0.20313 0.81641,0.16797 1.6133,0.33984 2.375,0.5 1.5352,0.23047 2.8828,0.78516 4.0938,1.2227 0.60547,0.21094 1.1641,0.42578 1.6914,0.60938 0.46875,0.24219 0.90234,0.46484 1.293,0.66797 1.5625,0.82422 2.457,1.293 2.457,1.293 0.44922,0.24219 0.61719,0.79688 0.37891,1.2383 -0.23438,0.44141 -0.78906,0.60937 -1.2305,0.38672 l -0.0117,-0.01563 c 0,0 -0.89062,-0.48047 -2.4297,-1.332 -0.39062,-0.21094 -0.81641,-0.44141 -1.2812,-0.69922 -0.47656,-0.18359 -0.99609,-0.37109 -1.5391,-0.58203 -1.1016,-0.41406 -2.3242,-0.95312 -3.793,-1.1914 -0.72266,-0.16797 -1.4727,-0.33984 -2.2461,-0.50781 z m 26.43,136.54 c -12.039,0 -21.828,-17.488 -21.828,-38.965 0,-21.492 9.7891,-38.965 21.828,-38.965 12.039,0 21.836,17.473 21.836,38.965 0,21.48 -9.793,38.965 -21.836,38.965 z m 161.57,0 c -12.023,0 -21.816,-17.488 -21.816,-38.965 0,-21.492 9.793,-38.965 21.816,-38.965 12.051,0 21.828,17.473 21.828,38.965 0,21.48 -9.7773,38.965 -21.828,38.965 z M 496.787,33.13 c -0.92578,-0.15625 -1.8477,-0.26953 -2.7422,-0.41406 -0.92578,-0.10156 -1.875,-0.08594 -2.7812,-0.14062 -0.83984,-0.07422 -1.7344,0.11719 -2.5586,0.14062 -0.85156,0.08594 -1.6797,0.10156 -2.457,0.23047 -0.78516,0.18359 -1.5195,0.35156 -2.2461,0.51563 -1.4609,0.25391 -2.6836,0.78516 -3.7969,1.1914 -0.53906,0.21094 -1.0547,0.41406 -1.5273,0.58203 -0.46875,0.25781 -0.89453,0.5 -1.2812,0.69922 -1.5625,0.85156 -2.4531,1.3477 -2.4531,1.3477 -0.44141,0.23828 -1.0078,0.07031 -1.2305,-0.37109 -0.25781,-0.44141 -0.0898,-0.99609 0.35156,-1.2383 h 0.0117 c 0,0 0.89453,-0.46484 2.457,-1.2891 0.37891,-0.21094 0.82422,-0.42578 1.293,-0.68359 0.52734,-0.18359 1.0742,-0.39844 1.6914,-0.60938 1.2109,-0.44141 2.5586,-0.98047 4.0938,-1.2227 0.75,-0.15625 1.5469,-0.32422 2.375,-0.48047 0.82422,-0.125 1.707,-0.14062 2.5859,-0.19531 0.89453,-0.02734 1.7734,-0.20312 2.7539,-0.10156 0.91406,0.07422 1.8203,0.08594 2.7891,0.20312 0.96484,0.15625 1.9609,0.29688 2.9414,0.5 0.95312,0.25781 1.9336,0.50781 2.918,0.78516 0.93359,0.37109 1.9023,0.71094 2.8711,1.0938 0.90625,0.46875 1.8477,0.89453 2.7539,1.3945 0.85156,0.55469 1.7578,1.0547 2.5859,1.6445 0.8125,0.63672 1.6641,1.2109 2.418,1.8867 1.5195,1.3398 2.9023,2.7734 4.0938,4.2773 0.57031,0.78516 1.1484,1.5234 1.6445,2.3008 0.48828,0.79688 0.94141,1.5781 1.3945,2.3359 0.37109,0.79688 0.73828,1.5781 1.082,2.3203 0.33984,0.75 0.57031,1.5352 0.84375,2.2461 0.28516,0.72266 0.46094,1.4336 0.60938,2.1172 0.15625,0.66797 0.35156,1.3047 0.46875,1.9141 0.15625,1.2383 0.35156,2.3086 0.42578,3.1992 0.0742,1.793 0.11719,2.8008 0.11719,2.8008 0,0.18359 -0.14062,0.33203 -0.3125,0.33984 -0.17188,0 -0.32031,-0.12891 -0.33203,-0.29688 v -0.04297 c 0,0 -0.0742,-0.99609 -0.15625,-2.7266 -0.0859,-0.87891 -0.3125,-1.9219 -0.48047,-3.1133 -0.11719,-0.59375 -0.3125,-1.2227 -0.48047,-1.875 -0.17188,-0.66797 -0.35938,-1.3477 -0.65625,-2.043 -0.27344,-0.69922 -0.5,-1.4375 -0.85156,-2.1602 -0.33984,-0.72266 -0.71094,-1.4609 -1.0938,-2.2305 -0.44141,-0.72266 -0.91406,-1.4766 -1.3789,-2.2461 -0.5,-0.73828 -1.082,-1.4492 -1.6523,-2.1914 -1.1797,-1.4336 -2.5312,-2.8125 -4.0273,-4.0664 -0.73828,-0.63672 -1.5742,-1.1758 -2.3398,-1.7734 -0.82422,-0.55469 -1.6953,-1.0234 -2.5312,-1.5469 -0.87891,-0.46094 -1.793,-0.85156 -2.6758,-1.2812 -0.90625,-0.35156 -1.8477,-0.66797 -2.7539,-0.99609 -0.91797,-0.25781 -1.8516,-0.48828 -2.7734,-0.73047 z"
       id="path339" />
    <path
       d="m 461.95,95.148 c -9.2383,0 -16.75,14.387 -16.75,32.129 0,17.742 7.5078,32.129 16.75,32.129 9.2617,0 16.773,-14.387 16.773,-32.129 -0.004,-17.742 -7.5078,-32.129 -16.773,-32.129 z m 4.1211,17.926 c -2.8398,0 -5.1445,-2.3008 -5.1445,-5.1445 0,-2.8281 2.3086,-5.1445 5.1445,-5.1445 2.8438,0 5.1445,2.3203 5.1445,5.1445 0,2.8438 -2.3047,5.1445 -5.1445,5.1445 z"
       id="path341" />
    <path
       d="m 241.85,97.871 c 1.2656,-2.0312 2.6328,-3.9531 3.9102,-5.8281 1.3008,-1.875 2.6445,-3.6133 3.8633,-5.3047 1.293,-1.6445 2.5078,-3.1992 3.6289,-4.6367 1.1719,-1.3945 2.2461,-2.6758 3.1914,-3.8086 0.93359,-1.1523 1.8242,-2.0781 2.5273,-2.8906 1.4102,-1.5781 2.2227,-2.4883 2.2227,-2.4883 l 0.0352,-0.04297 c 0.004,-0.01172 0.004,-0.01172 0.0117,-0.01172 0.20312,-0.24219 0.29687,-0.52734 0.33984,-0.8125 -3.8867,4.2773 -7.582,8.6758 -11.031,13.195 -4.9375,6.4688 -9.4023,13.195 -13.234,20.145 0.25781,-0.46094 0.5,-0.89453 0.74609,-1.3398 1.2422,-2.082 2.4727,-4.1875 3.7891,-6.1758 z"
       id="path343" />
  </g>
</svg>
