<svg width="1116" height="878" xmlns="http://www.w3.org/2000/svg" xmlns:xlink="http://www.w3.org/1999/xlink"><defs><path id="a" d="M0 0h1116v878H0z"/></defs><g fill="none" fill-rule="evenodd"><mask id="b" fill="rgba(255, 255, 255, 0.13)"><use xlink:href="#a"/></mask><g mask="url(#b)" fill="rgba(255, 255, 255, 0.13)"><path d="M23.754 783.213c1.323 0 3.012.2 5.164.611 11.232 2.15 23.816 16.568 34.524 39.554 13.755 29.53 21.734 68.815 10.641 80.8-5.226 5.645-11.078 8.306-16.294 9.465H43.21c-4.823-1.028-9.294-3.02-12.685-5.751-3.286-2.643-5.048-5.646-4.962-8.438.156-5.119 3.057-7.35 6.127-9.711 3.728-2.854 7.954-6.102 9.796-15.494 1.038-5.29-1.023-10.484-3.41-16.499-3.155-7.947-6.73-16.954-4.189-28.863 2.9-13.577-4.921-25.924-10.098-34.095-3.326-5.25-5.334-8.42-3.846-10.31.672-.855 1.918-1.27 3.811-1.27zm798.73-202.348c36.883-39.65 109.146-26.559 123.255-23.532 26.97 5.786 28.434 24.237 29.726 40.516.368 4.627.714 8.997 1.597 12.99 3.784 17.107 20.948 15.41 44.712 13.062l1.856-.183c10.435-1.026 20.668 1.77 28.81 7.876 7.732 5.8 12.715 14.133 12.115 20.268-.955 9.763 6.934 25.761 7.507 26.908 15.995 20.927 35.452 26.155 56.05 31.69 4.245 1.14 8.58 2.306 12.98 3.642v1.872c-4.58-1.4-9.149-2.63-13.696-3.85-21.022-5.648-40.873-10.981-57.296-32.511l-.08-.126c-.355-.701-8.717-17.276-7.693-27.76.552-5.645-4.148-13.4-11.43-18.861-7.647-5.734-17.232-8.364-26.99-7.404l-1.855.183c-23.097 2.285-43.044 4.254-47.19-14.506-.905-4.087-1.255-8.504-1.626-13.18-1.306-16.458-2.656-33.475-28.084-38.93-13.866-2.974-84.846-15.845-120.867 22.874-30.188 32.454-50.79 47.613-86.408 45.963-13.237-.611-23.156-5.33-32.75-9.89-16.052-7.633-32.648-15.526-66.496-6.159-17.794 4.925-30.596 9.272-40.882 12.766-21.704 7.37-32.595 11.071-56.251 8.881-13.98-1.294-33.384-9.776-53.928-18.758-29.788-13.02-60.59-26.485-72.246-15.943-5.156 4.665-7.384 9.611-6.81 15.123 1.52 14.557 23.394 30.536 42.28 42.83 2.05 1.335 4.049 2.63 5.996 3.891 26.034 16.86 43.234 28 43.234 44.793 0 5.181-2.225 9.704-4.19 13.695-2.357 4.794-4.395 8.936-2.094 12.912 2.704 4.67 11.253 8.919 26.907 13.372 17.98 5.116 37.83 4.045 57.031 3.012 31.176-1.68 60.632-3.267 74.81 23.032.92 1.324 18.193 27.108-1.484 61.936-4.473 7.915-9.462 15.538-14.287 22.91-12.536 19.15-24.48 37.42-24.85 57.245h-2.241c.35-20.211 12.43-38.686 25.105-58.05 4.81-7.35 9.784-14.95 14.231-22.82 19.65-34.778 1.734-60.148 1.55-60.4l-.058-.094c-13.548-25.188-40.928-23.71-72.623-22.006-19.432 1.048-39.523 2.129-57.944-3.112-16.256-4.625-25.21-9.168-28.18-14.296-2.691-4.65-.39-9.326 2.044-14.275 1.986-4.035 4.039-8.208 4.039-13.06 0-15.966-16.876-26.894-42.42-43.437-1.95-1.263-3.95-2.558-6-3.893-20.419-13.292-41.505-28.918-43.082-44.042-.618-5.924 1.855-11.449 7.35-16.42 12.841-11.618 44.45 2.199 75.018 15.561 19.449 8.503 39.562 17.296 53.102 18.549 23.06 2.136 33.769-1.504 55.105-8.75 10.317-3.504 23.16-7.865 41.026-12.81 34.838-9.642 51.899-1.532 68.394 6.313 9.792 4.655 19.04 9.053 31.725 9.64 34.554 1.602 54.773-13.317 84.475-45.247zM550.11 642.667c25.466-1.038 41.219-1.432 45.185 1.876.744.62 1.077 1.382.96 2.2-.414 2.936-5.775 5.314-12.562 8.324-13.853 6.145-32.826 14.56-21.07 32.477 14.153 21.57 64.092 25.218 97.139 27.632 8.075.59 15.05 1.1 20.464 1.782 9.779 1.23 33.893 5.775 46.591 21.359 8.164 10.017 9.705 22.42 4.58 36.863-2.508 7.075-2.183 11.806.944 13.682 3.134 1.883 9.227.941 16.711-2.583 15.147-7.133 34.54-24.764 31.557-39.316-5.527-26.949-48.546-40.602-76.115-43.204-2.723-.258-5.914-.54-9.444-.852-38.612-3.413-80.211-7.788-85.082-16.53-.925-1.658-.577-3.373 1.033-5.101 11.587-12.427 44.19-24.739 77.368-11.69 30.136 11.853 47.01 17.586 71.617 7.909 20.375-8.014 57.662-18.293 78.467 2.886 18.15 18.474 28.144 28.642 57.082 26.026 17.612-1.598 40.78-1.715 51.097 6.82 4.581 3.789 6.219 8.933 4.873 15.287-3.975 18.763-11.375 53.686 59.738 82.556.209.084 21.884 8.82 41.026 25.739 17.673 15.619 36.756 41.599 27.47 76.705h-1.397l-.844-.14c9.228-34.483-9.507-60.01-26.85-75.354-18.86-16.685-40.21-25.3-40.423-25.384-72.566-29.462-64.703-66.575-60.923-84.41 1.224-5.781-.22-10.42-4.29-13.788-9.682-8.009-32.11-7.837-49.222-6.285-30.188 2.739-40.459-7.717-59.104-26.699-19.83-20.183-55.94-10.157-75.701-2.386-9.05 3.558-17.062 5.125-24.999 5.125-14.484.001-28.723-5.21-48.616-13.034-32.026-12.598-63.43-.79-74.566 11.157-1.12 1.202-1.38 2.298-.79 3.355 4.762 8.547 55.843 13.063 83.285 15.49 3.536.313 6.733.595 9.461.853 28.24 2.666 72.332 16.762 78.054 44.67 3.142 15.318-16.923 33.713-32.614 41.103-8.43 3.97-15.254 4.85-19.216 2.472-3.969-2.382-4.553-7.614-1.738-15.552 4.946-13.94 3.496-25.864-4.309-35.442-12.211-14.986-35.582-19.378-45.064-20.573-5.34-.671-12.28-1.178-20.319-1.765-33.53-2.45-84.203-6.152-98.917-28.576-12.743-19.423 8.14-28.686 21.96-34.814 5.732-2.544 11.15-4.947 11.438-6.987.043-.307-.07-.554-.366-.801-3.543-2.955-24.741-2.09-43.443-1.327-13.525.551-27.51 1.121-36.735.463-9.848-.702-16.9 1.673-18.412 6.207-1.413 4.235 2.522 10.723 14.503 14.964 23.69 8.385 36.349 22.223 33.038 36.114-3.01 12.626 11.218 23.347 37.133 27.979 5.715 1.022 14.109 1.273 23.827 1.564 30.87.922 77.52 2.315 93.144 32.353 20.118 38.683-19.113 79.838-19.512 80.248l-.083.076c-23.32 19.063-31.697 42.278-25.008 69.124h-2.283c-6.69-27.277 1.898-50.88 25.635-70.304 1.39-1.463 38.545-41.25 19.182-78.478-15.077-28.99-59.05-30.304-91.159-31.263-9.831-.294-18.32-.548-24.239-1.605-27.207-4.865-42.088-16.367-38.834-30.02 3.112-13.05-9.058-26.15-31.758-34.185-13.237-4.686-17.447-11.921-15.748-17.014 1.419-4.247 7.618-8.448 20.777-7.51 9.064.648 22.97.08 36.416-.468zm-139.86 34.378c13.917-3.037 25.93-1.618 35.707 4.217 18.746 11.188 17.064 28.161 15.58 43.136-1.114 11.233-2.166 21.842 5.739 28.061 18.715 14.724 76.994 23.491 109.398 16.457 16.136-3.503 31.888-.373 41.101 8.168 10.39 9.63 10.936 24.376 1.501 40.458-19.854 33.845-29.66 51.039-29.757 51.208-.069.17-9.72 22.492-1.526 44.732h-2.33c-8.074-22.635 1.678-45.14 1.785-45.38.132-.24 9.941-17.441 29.802-51.296 9.055-15.436 8.626-29.5-1.175-38.586-8.646-8.013-23.513-10.929-38.806-7.612-32.992 7.162-92.427-1.846-111.571-16.907-8.631-6.79-7.54-17.793-6.387-29.439 1.51-15.237 3.071-30.992-14.702-41.6-9.194-5.487-20.552-6.807-33.761-3.924-25.292 5.52-49.556 25.038-53.808 33.402-6.784 13.34-39.877 23.568-71.88 33.458l-1.289.397c-30.334 9.375-40.507 47.268-40.606 47.649-.02.143-3.326 21.165-3.326 39.334 0 18.536-5.041 52.803-38.801 74.05-8.383 5.286-19.443 6.296-31.976 2.95-33.608-8.99-78.461-50.66-95.349-104.825-18.329-58.79-45.644-71.216-83.774-72.206a609.192 609.192 0 00-4.837-.102c-3.502-.065-7.034-.133-10.524-.314v-1.764c3.502.187 7.054.258 10.576.323 1.63.03 3.252.06 4.857.1 22.231.58 37.866 5.19 50.696 14.95 14.914 11.348 26.419 30.513 35.175 58.594 16.704 53.58 60.86 94.744 93.899 103.576 11.776 3.152 22.102 2.24 29.863-2.651 33.031-20.782 37.963-54.459 37.963-72.681 0-18.28 3.323-39.408 3.357-39.619.43-1.664 10.54-39.277 41.99-48.998l1.288-.398c30.092-9.299 64.2-19.839 70.625-32.475 4.511-8.874 28.927-28.69 55.283-34.443zm377.317 12.374c25.717-5.875 29.158-1.394 39.357 11.917.622.814 1.274 1.664 1.96 2.548 11.16 14.424 21.11 22.368 41.701 23.044 20.509.672 46.062 6.696 51.332 31.575.623 2.946 1.17 5.965 1.695 8.884 3.829 21.205 7.787 43.134 45.544 62.935 26.577 13.94 70.44 41.008 65.583 65.661-.813 4.118-3.714 7.639-6.519 11.037-1.283 1.554-2.61 3.16-3.698 4.794a30.572 30.572 0 00-1.047 1.668h-2.438a33.08 33.08 0 011.51-2.494c1.134-1.694 2.49-3.336 3.8-4.925 2.802-3.398 5.446-6.603 6.185-10.352 4.668-23.686-38.48-50.22-64.614-63.928-37.816-19.833-42.443-41.669-46.28-62.853l-.235-1.296c-.525-2.91-1.068-5.916-1.688-8.843-5.023-23.716-29.54-29.464-49.224-30.109-21.593-.708-31.952-8.94-43.514-23.885-.687-.887-1.34-1.738-1.965-2.554-10.3-13.444-12.75-16.637-36.822-11.138-7.709 1.76-12.01 4.59-12.788 8.41-1.446 7.107 9.314 16.49 19.922 22.203 21.25 11.438 22.77 31.971 4.644 62.772-21.178 35.993-83.697 72.535-84.325 72.899-25.627 12.675-37.581 31.465-35.813 56.093h-2.262c-1.815-25.243 10.48-44.518 36.818-57.543.556-.326 62.62-36.604 83.557-72.185 17.592-29.895 16.323-49.713-3.879-60.587-11.545-6.215-22.474-16.025-20.866-23.93.927-4.55 5.761-7.853 14.369-9.818zm7.958 131.734c13.988-14.188 31.398-31.841 70.09-11.783 10.806 5.604 27.44 10.442 45.052 15.565 51.756 15.051 116.166 33.785 92.555 87.388-.016.035-.207.439-.49 1.159h-2.333c.412-1.089.707-1.721.725-1.756 22.883-51.955-40.39-70.358-91.231-85.144-17.735-5.158-34.486-10.03-45.507-15.745-36.969-19.165-52.975-2.93-67.098 11.393-1.752 1.777-3.408 3.455-5.1 5.07-15.443 14.731-60.109 36.59-62.748 37.875-1.365.876-30.37 19.956-24.524 48.307h-2.262c-5.92-29.756 25.125-49.512 25.447-49.713l.107-.058c.468-.228 46.915-22.894 62.258-37.529 1.67-1.594 3.316-3.262 5.06-5.029zm-373.074 22.172c18.082-9.506 33.989-12.921 47.27-10.158 16.284 3.389 23.62 14.91 26.032 18.698 11.003 17.278 9.881 37.501 8.411 57.195l-.15 1.99c-.06.816-.119 1.624-.18 2.432H501.6l.188-2.538c1.512-20.08 3.076-40.852-8.03-58.293-2.3-3.61-9.296-14.6-24.606-17.787-12.639-2.629-27.934.708-45.46 9.921-21.746 11.433-23.028 27.608-23.947 44.798l-.056 1.053c-.407 7.648-.826 15.41-3.092 22.846h-2.319c2.355-7.428 2.772-15.233 3.18-22.925.915-17.24 1.861-35.07 24.994-47.232zm-65.163-97.507c28.266-11.12 49.893-14.087 66.12-9.074 13.312 4.112 23.398 13.698 30.838 29.304 7.603 15.95 33.907 18.39 61.756 20.974 25.22 2.34 51.3 4.76 62.017 18.38 13.612 17.3-1.782 35.162-17.093 47.1-12.272 9.57-19.103 18.736-20.883 28.02-1.96 10.228-3.495 23.205-1.45 32.96h-2.25c-2.001-9.983-.47-22.977 1.493-33.224 1.854-9.67 8.893-19.158 21.519-29.004 14.736-11.49 29.605-28.61 16.766-44.927-10.15-12.901-35.686-15.27-60.38-17.56-27.288-2.532-55.505-5.15-63.586-22.103-7.203-15.113-16.874-24.366-29.564-28.285-15.602-4.821-36.638-1.875-64.305 9.01-10.76 4.233-20.953 7.53-30.81 10.718-38.412 12.425-63.789 20.633-50.626 63.355 9.98 32.392 4.117 64.275-15.684 85.286a70.706 70.706 0 01-7.326 6.734h-3.172a68.872 68.872 0 008.705-7.78c19.412-20.597 25.133-51.934 15.307-83.827-13.613-44.186 13.886-53.081 51.948-65.393 9.82-3.175 19.973-6.46 30.66-10.664zm501.887 115.567c2.992 0 6.232.28 9.906.858 30.271 4.763 86.62 13.629 85.371 39.131-.19 3.899.102 7.99.575 12.108h-2.24c-.47-4.127-.757-8.236-.564-12.17 1.174-24.013-56.07-33.018-83.58-37.347-3.529-.555-6.626-.824-9.468-.824-10.532 0-15.444 3.885-21.13 8.384-6.883 5.44-14.685 11.613-33.854 13.395-22.894 2.116-29.716 11.406-31.408 18.816-.74 3.249-.849 6.524-.675 9.746h-2.225c-.171-3.301-.057-6.717.703-10.053 1.826-7.999 9.092-18.017 33.343-20.256 18.398-1.703 25.908-7.644 32.533-12.886 5.787-4.579 11.253-8.902 22.713-8.902zm-419.3-1.615c5.107-2.04 11.816-.025 20.507 6.165 10.606 7.551 11.847 25.298 10.462 47.547h-2.231c1.376-21.818.244-39.145-9.728-46.245-7.814-5.564-13.871-7.55-18-5.901-9.64 3.85-9.48 26.675-7.102 50.675l.148 1.47h-2.27c-2.723-26.04-2.875-49.283 8.214-53.71zm394.852-23.833c7.468 0 15.224 1.523 23.053 4.528 14.981 5.749 33.511 9.247 51.43 12.628 39.392 7.435 76.6 14.457 74.171 43.75-.467 5.637-.477 11.213-.27 16.639h-2.233c-.206-5.453-.195-11.072.276-16.752 2.305-27.817-34.012-34.672-72.463-41.93-18.037-3.402-36.689-6.923-51.89-12.758-7.52-2.886-14.947-4.35-22.074-4.35-27.985 0-48.866 21.817-69.06 42.918-4.4 4.591-8.557 8.938-12.812 13.09-6.207 6.059-9.737 12.863-11.483 19.782h-2.269c1.776-7.288 5.449-14.478 12.014-20.888 4.232-4.126 8.378-8.455 12.767-13.047 20.522-21.438 41.744-43.61 70.843-43.61zM23.754 784.969c-.715 0-1.628.076-1.913.437-.833 1.06 1.488 4.724 3.945 8.603 5.306 8.375 13.322 21.03 10.303 35.17-2.455 11.494 1.037 20.289 4.117 28.049 2.367 5.963 4.604 11.597 3.487 17.29-1.957 9.974-6.662 13.583-10.444 16.49-3.09 2.37-5.321 4.082-5.455 8.49-.071 2.318 1.466 4.864 4.329 7.164 4.597 3.706 11.672 6.006 18.463 6.006 5.871 0 14.4-1.65 21.694-9.526 10.659-11.511 2.625-50.052-10.933-79.16-10.293-22.098-22.614-36.472-32.957-38.452-1.95-.373-3.509-.561-4.636-.561zm380.238-23.109c28.378 0 54.353 17.678 59.132 40.244 3.958 18.68-22.348 22.136-47.786 25.478-4.456.585-9.064 1.191-13.36 1.866-13.965 2.198-18.337 15.513-22.968 29.61-4.294 13.075-8.735 26.6-21.31 32.614-14.028 6.726-27.527 10.571-37.036 10.571-5.682 0-9.994-1.317-12.817-3.924-3.527-3.258-4.592-8.447-3.164-15.435 5.928-29.023-2.372-42.475-8.432-52.3-4.321-7.003-7.734-12.536-4.936-20.664 6.285-18.259 24.722-31.753 54.795-40.108 27.82-7.729 54.887-7.952 57.882-7.952zm0 1.756c-2.955 0-29.669.22-57.14 7.852-29.34 8.151-47.3 21.243-53.383 38.912-2.58 7.493.511 12.504 4.79 19.438 6.19 10.034 14.667 23.775 8.626 53.346-1.318 6.454-.422 11.169 2.662 14.013 2.378 2.204 6.118 3.31 11.117 3.31 9.112 0 22.188-3.757 35.876-10.307 11.801-5.655 16.127-18.825 20.31-31.562 4.81-14.645 9.353-28.477 24.691-30.89 4.331-.683 8.956-1.29 13.43-1.878 24.357-3.2 49.543-6.51 45.953-23.458-4.607-21.744-29.615-38.776-56.932-38.776zm575.693-67.555c9.963-5.66 29.793-7.085 46.128-3.315 12.979 2.998 22.228 8.858 26.046 16.501 5.442 10.898 14.906 16.532 21.886 19.338 6.298 2.532 13.612 2.589 21.173 2.41 14.819-.337 31.387.289 46.441 6.255v1.977c-14.898-6.177-31.527-6.812-46.376-6.473-7.865.175-15.485.116-22.255-2.603-7.324-2.945-17.25-8.85-22.949-20.262-3.56-7.126-12.295-12.615-24.597-15.455-15.734-3.631-34.733-2.319-44.187 3.052-8.057 4.577-6.634 7.921-4.055 13.99 2.219 5.217 5.259 12.362 2.69 23.134-6.167 25.879 11.956 40.667 60.598 49.45 24.276 4.382 38.065 16.365 54.597 37.893 16.532 21.528 21.02 47.184 13.414 66.998l-2.14-.51c7.433-19.36 2.369-44.5-13.208-65.605-14.486-19.627-29.495-32.791-53.163-37.063-49.44-8.926-68.653-24.806-62.293-51.488 2.46-10.322-.354-16.937-2.614-22.251-2.626-6.177-4.524-10.639 4.864-15.973zm-695.78-534.888c33.004-10.61 71.147 7.336 90.28 29.606 5.407 6.293 8.85 13.35 12.182 20.177 3.037 6.222 6.176 12.656 10.78 18.425 7.264 9.101 17.631 15.927 30.811 20.286 5.17 1.71 10.594 3.054 15.84 4.353 10.66 2.64 21.682 5.37 30.993 11.303 11.466 7.306 18.085 17.52 20.83 32.143 2.38 12.68 9.42 22.289 21.518 29.38 3.2 1.876 6.73 3.49 10.144 5.05 3.676 1.68 7.477 3.417 10.934 5.506 2.802 1.693 5.598 3.688 8.308 5.928 5.593 4.619 8.214 10.732 9.872 15.543 3.663 10.618 12.538 30.099 30.836 41.255 5.459 3.329 11.097 6.549 16.546 9.663 21.395 12.22 41.605 23.764 43.809 38.075 1.208 7.846-1.916 15.808-4.937 23.507-3.792 9.664-7.374 18.792-1.93 26.501a287.35 287.35 0 002.615 3.616c11.022 15.088 31.536 43.169 9.51 74.977-10.289 14.86-33.06 21.45-50.352 24.36-37.135 6.251-83.859 1.447-104.16-10.706-34.744-20.798-60.451-27.877-85.964-23.68-28.862 4.757-67.06-11.722-83.287-29.485-9.275-10.152-24.948-12.683-40.106-15.13-9.596-1.549-18.662-3.012-25.565-6.355-8.7-4.213-34.537 2.042-56.417 13.658-18.065 9.59-27.867 19.877-26.219 27.517.505 2.34 1.628 3.936 3.432 4.88 4.436 2.322 13.164.728 23.275-1.121 18.622-3.405 44.125-8.067 66.18 6.589 19.477 12.944 30.206 23.549 39.67 32.906 9.482 9.372 17.67 17.467 32.143 25.282 17.217 9.297 20.559 24.424 17.945 35.48-2.588 10.944-11.092 19.296-21.667 21.276-23.763 4.452-29.505 10.598-33.765 25.677-4.52 16.003-15.856 19.034-38.868 21.75-1.26.148-2.538.292-3.823.436-21.92 2.462-44.587 5.007-47.68 38.27-.706 7.576-.665 15.437-.625 23.039.15 28.979.292 56.35-39.233 65.538-3.528.82-6.916 1.205-10.167 1.205-33.634 0-52.817-41.258-65.902-69.4-3.774-8.118-7.035-15.129-10.067-20.064-25.491-41.481-53.196-48.926-79.989-56.125-12.937-3.477-25.431-6.841-36.956-13.94v-2.279c11.676 7.56 24.44 10.998 37.677 14.556 25.96 6.975 55.382 14.883 81.276 57.022 3.083 5.015 6.36 12.066 10.156 20.228 14.063 30.244 35.314 75.953 73.34 67.113 37.919-8.814 37.779-35.545 37.633-63.847-.04-7.634-.08-15.53.63-23.175 3.226-34.672 27.858-37.439 49.592-39.879 1.28-.144 2.551-.287 3.808-.435 22.484-2.654 32.78-5.384 37.019-20.395 4.77-16.882 12.384-22.687 35.427-27.003 9.717-1.82 17.564-9.627 19.99-19.888 2.485-10.515-.68-24.892-17.015-33.712-14.748-7.965-23.032-16.154-32.625-25.637-9.401-9.294-20.055-19.826-39.364-32.658-21.199-14.087-46.073-9.54-64.235-6.22-11.05 2.02-19.78 3.615-25.016.874-2.344-1.228-3.783-3.207-4.396-6.05-1.826-8.462 8.077-19.13 27.17-29.267 20.43-10.844 48.022-18.932 58.836-13.696 6.568 3.18 15.446 4.613 24.844 6.13 14.853 2.398 31.685 5.115 41.47 15.825 15.826 17.324 52.992 33.408 81.017 28.793 26.213-4.32 52.46 2.86 87.772 24 19.853 11.884 65.761 16.543 102.342 10.386 16.833-2.834 38.974-9.208 48.86-23.483 21.428-30.946 1.318-58.473-9.486-73.262-.95-1.302-1.838-2.516-2.63-3.638-5.907-8.365-2.189-17.84 1.746-27.871 2.954-7.525 6.006-15.305 4.855-22.78-2.046-13.278-21.127-24.42-41.645-36.146l-1.258-.719c-5.465-3.122-11.116-6.35-16.602-9.695-18.814-11.47-27.888-31.353-31.623-42.184-1.59-4.61-4.088-10.458-9.335-14.792-2.632-2.173-5.342-4.107-8.052-5.746-3.342-2.02-7.08-3.728-10.695-5.38-3.468-1.585-7.055-3.224-10.357-5.16-12.596-7.384-19.92-17.37-22.392-30.53-2.659-14.163-9.022-24.024-20.027-31.037-8.98-5.722-19.316-8.282-30.26-10.992-5.292-1.311-10.766-2.667-16.033-4.41-13.612-4.5-24.323-11.557-31.836-20.97-4.72-5.915-7.899-12.43-10.974-18.73-3.285-6.733-6.683-13.696-11.947-19.822-18.64-21.696-55.671-39.22-87.587-28.965-30.016 9.648-62.581 12.126-94.075 14.523l-11.476.874c-14.081 1.061-28.643 2.16-42.776 4.103-13.718 1.887-28.951 5.2-37.91 15.473-7.777 8.917-9.355 20.107-10.304 30.803a72.77 72.77 0 00-.18 2.869c-.203 4.1-.413 8.34-3.197 11.923-2.763 3.555-7.6 6.2-14.379 7.86-5.692 1.395-11.353 1.518-16.83 1.635-2.645.058-5.383.116-8.093.32-20.874 1.557-37.033.094-52.387-4.743-3.363-1.06-6.805-2.44-10.134-3.776-2.739-1.1-5.518-2.214-8.329-3.186v-1.914c3.17 1.058 6.28 2.305 9.344 3.534 3.435 1.38 6.68 2.682 9.948 3.712 15.211 4.792 30.566 6.172 51.348 4.623 2.784-.208 5.56-.267 8.243-.326 5.57-.119 10.83-.232 16.227-1.555 6.245-1.53 10.666-3.919 13.138-7.1 2.315-2.98 2.642-6.67 2.832-10.3l.04-.776c.048-.99.096-1.967.182-2.922.971-10.938 2.596-22.394 10.69-31.674 9.428-10.81 25.19-14.26 39.367-16.21 14.218-1.955 28.823-3.056 42.947-4.122l11.475-.872c31.333-2.386 63.732-4.851 93.446-14.401zm105.371 614.643c1.392 0 2.803.031 4.194.094 20.27.912 34.158 4.643 41.276 11.092 3.708 3.36 5.424 7.443 4.96 11.807-.544 5.124-10.98 7.358-24.192 10.186-13.9 2.973-31.198 6.676-39.73 14.88-4.468 4.299-11.813 6.666-20.68 6.666-13.445 0-26.653-5.454-31.406-12.97-2.624-4.147-4.04-10.875 4.117-19.364.283-.264 24.678-22.391 61.461-22.391zm0 1.756c-35.73 0-59.486 21.516-59.721 21.733-5.87 6.113-7.218 12.173-3.86 17.484 4.398 6.952 16.765 11.996 29.408 11.996 8.185 0 14.917-2.138 18.953-6.02 8.984-8.641 26.664-12.424 40.87-15.465 11.882-2.544 22.142-4.74 22.556-8.637.419-3.936-1.07-7.473-4.423-10.51-6.612-5.991-20.347-9.619-39.716-10.49a92.49 92.49 0 00-4.067-.091zM398.94 784c2.101 0 4.24.31 6.355.917 8.12 2.337 10.244 6.822 9.596 9.953-.53 2.553-2.844 4.336-5.628 4.336a6.952 6.952 0 01-1.618-.195l-.163-.05s-1.094-.378-3.563-.378c-2.456 0-6.733.382-13.166 2.204-2.877.816-5.138 1.213-6.909 1.213-1.805 0-3.136-.425-3.96-1.263-.889-.906-1.11-2.239-.653-3.96 1.214-4.585 8.84-12.777 19.71-12.777zM-25.32 569.51c.5.396.998.794 1.527 1.181 5.46 3.433 11.1 6.095 16.556 8.67 1.087.425 2.175.882 3.226 1.325 2.988 1.256 5.569 2.341 8.745 2.966 18.354 2.51 33 9.602 47.163 16.461 5.751 2.785 11.697 5.664 17.815 8.198 30.764 12.101 79.69 19.265 116.267-.396 4.543-2.44 8.837-5.355 12.988-8.172 7.006-4.754 14.251-9.669 22.98-12.53 8.265-2.71 15.122-3.088 20.962-1.156 7.431 2.458 10.291 9.115 12.59 14.463.32.744.669 1.408 1.064 2.03 2.89 4.167 7.681 6.998 14.221 8.385 3.36.712 7 1.168 10.522 1.609 8.844 1.105 17.99 2.25 24.04 7.533 11.75 10.257 15.171 25.74 8.133 36.815-3.995 5.243-9.667 8.544-15.671 12.04-4.258 2.478-8.661 5.041-12.393 8.345-3.811 3.498-6.124 7.568-8.572 11.877-.451.795-.904 1.592-1.368 2.388-6.34 10.873-22.07 15.267-36.623 18.131-9.664 1.901-19.015 4.017-27.191 8.949-4.382 3.454-7.749 6.985-11.004 10.4-5.378 6.776-7.56 13.515-9.848 21.615-1.456 6.882-.955 13.974-.47 20.832.244 3.465.497 7.05.497 10.585l-.007.097c-1.087 7.7-3.862 12.982-8.484 16.149-4.901 3.36-11.807 2.606-16.636.782-16.912-6.39-25.055-20.801-32.66-35.032l-.794-1.488c-2.038-3.823-3.964-7.433-6.039-10.86-1.658-2.167-2.806-4.2-3.918-6.168-1.084-1.917-2.204-3.901-3.842-6.05-2.34-3.068-4.711-5.29-7.455-7.863-1.132-1.062-2.33-2.186-3.62-3.454-8.214-7.637-18.393-13.248-29.17-19.188-5.033-2.776-10.239-5.645-15.289-8.767-7.07-4.635-11.57-11.072-12.693-18.141-1.333-4.964-1.977-10.014-2.6-14.898-1.452-11.39-2.824-22.15-12.76-31.17-3.897-3.062-8.418-5.27-13.204-7.606l-.82-.4c-2.894-1.416-5.978-2.533-9.717-3.775-1.315-.435-2.602-.936-3.846-1.42-2.048-.797-3.98-1.55-6.058-2.056-3.177-.773-6.503-1.366-9.624-1.894-4.378-.74-8.933-1.14-13.337-1.528-1.18-.104-2.382-.213-3.584-.325v-1.769c1.286.123 2.57.238 3.831.35 4.46.392 9.071.798 13.559 1.556 3.17.534 6.555 1.14 9.814 1.933 2.247.547 4.352 1.367 6.389 2.158 1.214.473 2.47.963 3.723 1.379 3.837 1.273 7.01 2.423 10.028 3.899l.818.4c4.9 2.392 9.526 4.651 13.66 7.902 10.156 9.216 11.773 19.886 13.222 31.192l.128 1c.617 4.837 1.254 9.838 2.576 14.782 1.068 6.698 5.29 12.733 11.9 17.066 4.977 3.076 10.156 5.932 15.165 8.693 10.898 6.008 21.192 11.683 29.612 19.51a202.49 202.49 0 003.606 3.44c2.806 2.632 5.229 4.904 7.658 8.09 1.71 2.241 2.858 4.275 3.97 6.242 1.084 1.917 2.204 3.901 3.842 6.05 2.149 3.54 4.084 7.168 6.134 11.01 7.68 14.402 15.624 29.294 32.362 35.617 4.188 1.583 10.118 2.277 14.204-.523 4.17-2.858 6.696-7.755 7.724-14.97-.002-3.472-.252-7.014-.494-10.439-.491-6.954-1-14.146.51-21.265 2.345-8.313 4.579-15.197 10.198-22.271 3.369-3.54 6.797-7.136 11.317-10.692l.108-.075c8.53-5.162 18.144-7.342 28.068-9.294 14.038-2.763 29.19-6.963 35.135-17.16.462-.79.911-1.583 1.36-2.372 2.404-4.234 4.892-8.612 8.927-12.315 3.9-3.452 8.398-6.07 12.748-8.602 5.82-3.39 11.317-6.59 15.043-11.473 6.602-10.395 3.325-25.054-7.835-34.795-5.524-4.822-13.883-5.868-22.734-6.976-3.579-.448-7.28-.91-10.752-1.646-7.152-1.517-12.407-4.634-15.619-9.268-.46-.724-.846-1.46-1.198-2.28-2.268-5.276-4.838-11.256-11.343-13.408-5.26-1.737-11.552-1.36-19.237 1.158-8.4 2.753-15.508 7.577-22.381 12.24-4.198 2.849-8.539 5.795-13.186 8.292-15.876 8.534-36.082 12.836-58.444 12.431-20.13-.36-41.475-4.595-60.102-11.922-6.205-2.57-12.183-5.465-17.965-8.266-13.985-6.77-28.444-13.775-46.455-16.24-3.524-.69-6.348-1.876-9.336-3.134a143.726 143.726 0 00-3.248-1.334c-5.594-2.638-11.3-5.332-16.939-8.88l-.07-.056zm424.26 216.325c-9.535 0-16.478 7.378-17.525 11.333-.21.79-.343 1.854.21 2.417.895.91 3.894.743 8.399-.532 5.4-1.53 10.074-2.305 13.895-2.305 2.641 0 4.021.386 4.41.515 2.06.466 3.952-.747 4.358-2.702.503-2.425-1.325-5.955-8.13-7.913a20.358 20.358 0 00-5.617-.813zM862.51 738c6.444 0 12.085 2.552 16.766 7.585.603.647 1.17 1.25 1.7 1.817 8.2 8.735 8.172 9.27-.969 19.097-1.738 1.87-3.309 4.065-4.973 6.39l-.66.922C869.956 779.954 865.23 786 856.828 786c-1.028 0-2.1-.095-3.189-.283-13.329-2.294-23.042-12.003-23.618-23.61-.297-5.95 2.477-10.952 8.241-14.868 9.029-6.13 17.185-9.239 24.247-9.239zm0 1.802c-6.54 0-14.227 2.97-22.85 8.826-5.21 3.538-7.716 8.05-7.45 13.406.537 10.78 9.533 19.795 21.88 21.92.94.162 1.861.244 2.739.244 7.569 0 12.016-6.214 16.316-12.223 1.624-2.268 3.302-4.615 5.122-6.57 4.464-4.8 6.443-7.004 6.538-8.94.097-1.933-1.796-3.948-5.563-7.962a499.03 499.03 0 01-1.706-1.824c-4.306-4.627-9.22-6.877-15.026-6.877zm163.688-6.031c6.277 0 13.867 2.456 20.302 6.57 12.485 7.985 17.13 15.966 12.122 20.83-2.498 2.426-7.086 3.819-12.583 3.819-6.683 0-13.681-2.025-19.203-5.556-11.163-7.138-15.836-17.228-10.414-22.493 2.136-2.075 5.516-3.17 9.776-3.17zm0 1.758c-3.565 0-6.346.873-8.043 2.52-4.646 4.511-.12 13.493 10.087 20.02 5.132 3.28 11.618 5.162 17.797 5.162 4.822 0 8.777-1.154 10.85-3.168 4.95-4.807-2.848-12.633-11.795-18.356-6.05-3.868-13.114-6.178-18.896-6.178zM221.364 616c6.964 0 12.702 2.553 16.591 7.382 2.277 2.829 8.529 5.213 15.147 7.737 12.33 4.702 26.304 10.033 22.152 20.778-3.357 8.684-12.95 14.61-21.414 19.838-7.183 4.436-13.967 8.626-15.755 13.717-2.425 6.905-10.409 8.717-18.86 10.634-6.599 1.497-13.423 3.045-18.603 7.065-2.38 1.847-4.671 3.853-6.887 5.793-8.459 7.402-17.204 15.056-32.308 15.056-1.174 0-2.388-.046-3.61-.139-21.406-1.608-29.157-9.753-39.378-22.976-4.361-5.64-10.446-7.498-16.89-9.465l-.732-.223c-7.698-2.358-15.528-5.005-19.656-14.617-1.862-4.336-4.108-8.145-6.09-11.504-6.097-10.334-10.501-17.801 1.555-29.193.095-.118 4.011-4.515 16.085-4.515 6.885 0 15.09 1.432 24.39 4.257 7.001 2.127 14.622 3.205 22.65 3.205 26.398 0 50.365-11.348 59.444-16.226 8.155-4.383 15.614-6.604 22.17-6.604zm0 1.735c-6.092 0-13.122 2.118-20.895 6.295-9.253 4.972-33.69 16.535-60.718 16.535-8.308 0-16.203-1.118-23.464-3.323-9.04-2.746-16.972-4.139-23.576-4.139-10.773 0-14.262 3.78-14.296 3.818-11.23 10.616-7.284 17.306-1.31 27.433 2.004 3.4 4.277 7.253 6.177 11.677 3.929 9.148 11.292 11.395 19.085 13.774l.85.26c6.24 1.912 12.593 4.047 17.138 9.926 9.826 12.713 16.904 20.582 37.677 22.143 1.151.087 2.293.13 3.395.13 14.099 0 22.131-7.03 30.634-14.472 2.239-1.958 4.553-3.985 6.98-5.868 5.584-4.334 13.007-6.018 19.556-7.504 8.175-1.855 15.234-3.457 17.331-9.424 1.981-5.64 9.043-10.001 16.52-14.62 8.608-5.316 17.508-10.814 20.664-18.978 3.609-9.337-8.9-14.108-20.996-18.722-6.912-2.636-13.442-5.125-16.057-8.373-3.51-4.36-8.453-6.568-14.695-6.568zM211.111 637c8.07 0 13.104 4.089 13.811 11.218 1.364 13.747-15.087 41.855-59.295 44.534-2.72.164-5.446.248-8.098.248-23.086 0-42.752-6.411-51.322-16.73-4.818-5.804-5.523-12.324-1.983-18.363 3.665-6.253 8.652-9.042 16.167-9.042 4.266 0 8.941.85 14.354 1.835 6.739 1.226 14.378 2.615 23.01 2.615 1.447 0 2.9-.04 4.318-.118.1-.01 16.06-1.647 29.19-9.792 6.562-4.07 13.797-6.405 19.848-6.405zm0 1.738c-5.551 0-12.276 2.195-18.449 6.024-13.64 8.462-29.694 10.099-30.37 10.164-1.53.085-3.037.127-4.537.127-8.891 0-16.665-1.414-23.523-2.662-5.276-.96-9.834-1.788-13.84-1.788-6.607 0-10.831 2.4-14.128 8.024-3.26 5.56-2.628 11.336 1.828 16.702 8.162 9.828 27.105 15.933 49.437 15.933 2.594 0 5.261-.082 7.924-.243 42.65-2.584 58.54-29.504 57.235-42.667-.624-6.29-4.627-9.614-11.577-9.614zm-30.653 22.947c2.005 0 4.436.168 5.46 1.471.706.902.567 2.102-.429 3.67-2.946 4.641-22.228 10.567-34.386 10.567-9.493 0-10.91-3.538-10.91-5.646.035-.364.96-7.207 18.57-8.317 4.07-.255 7.928-.64 11.334-.979 4.133-.41 7.702-.766 10.361-.766zM908.941 574c21.626 0 33.546 8.046 35.43 23.915 2.952 24.852 27.114 44.32 55.007 44.32 1 0 2.014-.025 3.016-.074a58.211 58.211 0 012.9-.073c18.135 0 30.225 8.352 35.49 16.17 3.791 5.627 4.266 11.364 1.236 14.974-1.563 1.863-4.07 2.768-7.663 2.768h-.004c-5.058 0-11.697-1.78-19.387-3.843-9.627-2.583-20.539-5.51-30.78-5.51-2.484 0-4.858.177-7.053.525a128.998 128.998 0 01-20.183 1.58c-23.855 0-42.589-6.495-51.393-17.822-12.355-15.89-37.64-24.764-55.16-25.048-14.361-.232-24.791-4.956-25.368-11.485-.287-3.286 1.59-6.228 3.403-9.074l.126-.196c4.09-6.42 14.992-18.238 42.08-25.292C885.5 575.964 898.388 574 908.94 574zm-728.483 89.444c-2.518 0-6.024.349-10.082.752-3.43.341-7.315.727-11.435.987-15.553.98-16.514 6.591-16.522 6.647.006 2.496 2.925 3.805 8.684 3.805 11.939 0 30.04-5.894 32.39-9.595.586-.924.778-1.638.525-1.96-.186-.237-.897-.636-3.56-.636zm728.483-87.679c-10.318 0-22.972 1.935-37.611 5.747-26.325 6.855-36.856 18.237-40.79 24.41l-.126.2c-1.677 2.63-3.413 5.352-3.167 8.153.492 5.58 10.03 9.629 23.196 9.842 18.105.293 44.235 9.466 57.003 25.886 8.392 10.794 26.437 16.984 49.504 16.984 6.65 0 13.293-.52 19.747-1.545 2.339-.371 4.859-.56 7.49-.56 10.606 0 21.701 2.977 31.49 5.602 7.503 2.013 13.983 3.751 18.676 3.751h.002c2.833 0 4.682-.63 5.816-1.983 2.574-3.066 2.059-8.11-1.345-13.162-4.963-7.366-16.378-15.237-33.531-15.237-.91 0-1.84.023-2.762.07a64.933 64.933 0 01-3.155.078c-29.026 0-54.16-20.171-57.217-45.92-1.76-14.807-12.936-22.316-33.22-22.316zM572.433-35.969c-3.495 3.817-7.5 7.348-11.506 10.47-12.272 9.571-19.103 18.737-20.883 28.022-2.501 13.048-4.338 30.614 1.119 40.19 10.06 17.656 3.472 43.21-8.234 59.326-11.196 15.416-18.674 33.566 2.228 61.754 19.858 26.783 37.018 78.328 29.894 109.47-4.779 20.885.2 24.153 10.12 30.666 3.763 2.47 8.027 5.27 12.697 9.582l.18.167c16.836 15.55 26.11 24.115 26.867 38.999.146 2.868-.1 5.565-.338 8.173-.97 10.642-1.807 19.832 25.85 33.258 31.963 15.518 65.6 34.637 60.038 65.26-5.566 30.654-4.535 47.27 3.56 57.354 3.635 4.53-1.367 13.027-7.699 23.786-10.057 17.09-22.577 38.36-2.27 49.72 34.42 19.257 75.882-4.888 92.999-20.349 7.93-7.162 19.422-13.966 31.592-21.17 18.65-11.041 39.788-23.554 52.363-40.163 13.133-17.344 11.317-26.777 8.57-41.055-1.552-8.071-3.314-17.22-2.775-29.933 1.472-34.78 46.714-66.74 75.332-70.492 14.717-1.933 28.637 1.97 34.64 9.703 5.761 7.423 3.773 16.97-5.598 26.884-8.308 8.79-17.072 14.48-24.805 19.5C944.03 431.17 935.11 436.96 936 450.28c.544 8.142 3.113 14.357 5.598 20.364 4.17 10.09 7.773 18.803-.85 32.374-4.93 7.756-5.93 13.704-3.06 18.184 3.782 5.9 14.153 9.624 34.68 12.45 18.336 2.523 24.852 11.896 33.869 24.868 6.045 8.697 13.57 19.52 26.776 31.55 19.148 17.442 39.425 23.047 53.064 24.678 2.794.333 5.666.587 8.44.833 4.48.395 9.113.805 13.622 1.567 3.098.523 6.407 1.115 9.613 1.889 2.288.553 4.43 1.385 6.506 2.19 1.217.472 2.478.96 3.739 1.379 3.828 1.271 7.008 2.421 10.022 3.899l.826.4c.837.409 1.662.813 2.477 1.22v2.078c-1.194-.605-2.422-1.201-3.66-1.806l-.815-.4c-2.902-1.417-5.982-2.534-9.72-3.774-1.317-.437-2.6-.938-3.85-1.422-2.088-.809-4.063-1.574-6.183-2.086-3.122-.753-6.374-1.334-9.424-1.85-4.4-.745-8.976-1.149-13.402-1.54-2.797-.246-5.688-.502-8.527-.842-14.01-1.674-34.824-7.417-54.418-25.266-13.361-12.172-20.948-23.084-27.044-31.855-9.044-13.008-15.018-21.603-32.295-23.98-15.027-2.07-31.09-5.278-36.287-13.389-3.21-5.01-2.212-11.475 3.054-19.76 8.215-12.927 4.91-20.922.723-31.045-2.41-5.832-5.143-12.44-5.703-20.816-.95-14.203 8.817-20.544 21.182-28.572 7.635-4.957 16.287-10.575 24.435-19.196 8.79-9.3 10.74-18.15 5.484-24.919-5.534-7.13-18.543-10.704-32.37-8.888-13.597 1.783-31.675 10.698-46.056 22.711-17.017 14.216-26.753 30.59-27.41 46.107-.533 12.553 1.212 21.617 2.751 29.613 2.718 14.127 4.683 24.334-8.86 42.218-12.799 16.905-34.125 29.528-52.938 40.666-12.073 7.147-23.475 13.897-31.252 20.92-5.655 5.112-21.138 17.71-42.658 24.315-19.735 6.056-38.176 4.784-53.316-3.69-21.818-12.204-8.867-34.207 1.537-51.887 5.808-9.867 10.823-18.39 7.836-22.11-8.516-10.61-9.604-27.023-3.88-58.541 4.83-26.599-20.094-44.628-59.001-63.515-28.809-13.985-27.883-24.134-26.905-34.88.235-2.56.476-5.208.335-7.977-.726-14.278-9.285-22.183-26.336-37.93l-.182-.168c-4.545-4.198-8.732-6.947-12.426-9.37-10.25-6.73-15.895-10.438-10.886-32.327 6.836-29.881-10.003-81.809-29.627-108.274-21.472-28.96-13.763-47.638-2.237-63.51 11.426-15.731 17.89-40.616 8.134-57.738-5.677-9.964-3.834-27.888-1.288-41.17 1.854-9.671 8.893-19.16 21.519-29.006 3.559-2.775 7.123-5.881 10.306-9.223zm324.484 628.836c1.515 0 3.05.085 4.561.255 10.297 1.157 17.357 6.266 18.884 13.668 1.167 5.66-1.422 11.291-6.023 13.101-1.739.684-3.573 1.016-5.608 1.017h-.001c-3.465 0-7.009-.998-10.436-1.963-3.504-.986-7.128-2.006-10.725-2.006-.598 0-1.19.028-1.76.083-3.7.364-7.638.702-11.37.702-6.385 0-10.273-1.02-11.887-3.118-1.295-1.683-1.009-3.951.848-6.74l.077-.1c.546-.608 13.599-14.9 33.44-14.9zm0 1.756c-18.143 0-30.764 13.238-31.575 14.112-1.44 2.181-1.735 3.85-.882 4.962 1.16 1.507 4.517 2.27 9.98 2.27 3.609 0 7.463-.33 11.093-.687a20.918 20.918 0 012.036-.097c3.984 0 7.793 1.07 11.477 2.109 3.398.957 6.608 1.86 9.684 1.86 1.682 0 3.19-.272 4.61-.831 3.703-1.456 5.819-6.398 4.819-11.25-.654-3.17-3.62-10.708-16.997-12.21a37.979 37.979 0 00-4.245-.238zm-746.086-18.72c.897.73 1.271 1.819 1.145 3.327-.403 4.805-7.404 13.77-19.35 13.77-1.185 0-2.405-.09-3.627-.266-8.13-1.173-11.366-4.994-10.966-8.259.325-2.642 2.897-4.428 6.207-4.086l.165.027c.003 0 4.745.915 15.773-3.493 5.487-2.193 8.862-2.478 10.653-1.02zm-9.644 2.49c-8.192 3.276-13.222 3.764-15.49 3.764-.98 0-1.57-.084-1.806-.128a4.781 4.781 0 00-.431-.02c-2.03 0-3.1 1.317-3.26 2.622-.31 2.515 2.417 5.492 9.204 6.473 1.087.156 2.172.236 3.221.236 10.453 0 16.832-8.07 17.18-12.215.084-.999-.11-1.72-.56-2.087-.987-.803-3.856-.324-8.058 1.355zm883.71-171.924c4.354-2.802 8.993-3.73 13.78-2.758 8.263 1.675 14.31 8.398 16.98 13.647 2.276 4.925 3.42 9.872 4.525 14.656 1.09 4.712 2.215 9.585 4.414 14.344 8.932 15.454 30.363 18.74 51.087 21.918 4.48.688 8.72 1.338 12.85 2.112 4.564 1.12 8.805 2.483 12.789 3.964v1.93a113.718 113.718 0 00-13.38-4.202c-4.007-.75-8.226-1.396-12.686-2.08-20.288-3.111-43.282-6.638-52.724-22.979-2.297-4.962-3.44-9.909-4.545-14.693-1.09-4.712-2.216-9.585-4.415-14.344-2.658-5.226-8.475-11.158-15.452-12.574-4.065-.821-8.036-.01-11.81 2.417-12.343 7.946-20.119 17.712-27.642 27.86-.503.795-1.062 1.893-1.601 2.956-.548 1.078-1.114 2.19-1.683 3.093-2.735 5.956-2.42 12.76-2.143 18.765.227 4.897-1.535 9.617-3.239 14.183-1.193 3.194-2.426 6.496-2.946 9.8-.524 3.333.05 8.036 5.753 11.527 16.29 9.397 33.757 14.645 53.255 20.06l1.394.465c7.518 2.514 16.04 5.365 19.368 12.345 1.41 3.146 2.684 6.355 3.916 9.458 4.792 12.074 9.32 23.478 21.466 32.352 5.458 3.432 11.1 6.095 16.555 8.67 1.087.426 2.175.882 3.226 1.324 2.988 1.257 5.573 2.342 8.743 2.967 7.399 1.012 14.184 2.774 20.59 4.96v1.92c-6.54-2.284-13.481-4.127-21.048-5.163-3.526-.691-6.348-1.877-9.337-3.135-1.035-.434-2.105-.885-3.248-1.334-5.593-2.638-11.3-5.331-16.938-8.88-12.644-9.233-17.47-21.396-22.14-33.157-1.226-3.089-2.493-6.281-3.883-9.38-2.985-6.26-10.69-8.838-18.143-11.331l-1.334-.447c-19.598-5.44-37.226-10.739-53.788-20.292-5.194-3.179-7.475-7.718-6.62-13.144.54-3.446 1.8-6.82 3.018-10.081 1.729-4.634 3.362-9.011 3.15-13.623-.286-6.18-.61-13.186 2.297-19.475l.05-.092c.537-.846 1.096-1.944 1.635-3.007.557-1.095 1.134-2.229 1.712-3.14 7.666-10.341 15.562-20.252 28.193-28.382zM-25.32 258.44c8.81-.114 17.439-.117 26.506.329l.115.01c3.299.433 6.962.654 10.504.869 3.59.217 7.303.442 10.7.887 14.665 1.648 30.141 4.914 45.973 9.704 5.616 1.658 10.669 3.942 16.019 6.362 3.14 1.419 6.388 2.888 9.747 4.208 6.32 2.981 11.723 6.583 14.902 9.916 3.54 3.11 7.06 6.245 10.54 9.342 14.853 13.226 28.882 25.716 45.11 37.064.91.572 1.834 1.149 2.729 1.707 4.311 2.69 8.037 5.013 11.758 7.934 1.133.628 2.27 1.264 3.41 1.901 18.048 10.09 36.712 20.517 59.33 18.097 12.074-1.585 23.983-3.854 36.132-6.237 2.273-.446 4.9-1.054 7.148-2.189 1.831-.923 3.375-2.368 4.72-4.421 2.212-3.376 3.767-6.794 4.624-10.162 1.495-9.432 6.336-16.042 13.987-19.052a20.005 20.005 0 015.299-1c12.855-.729 26.11 4.766 35.445 14.698a47.686 47.686 0 014.232 5.157c.19.27.398.537.606.803.663.849 1.347 1.726 1.603 2.792l.137.597c.226 1.002.44 1.947.973 2.763 6.371 9.725 17.948 15.498 30.206 21.61 3.052 1.523 6.21 3.097 9.24 4.721 11.287 6.049 19.907 14.623 28.243 22.915.852.848 1.704 1.695 2.558 2.537a273.039 273.039 0 0011.076 10.36c5.387 3.523 10.7 5.865 16.847 8.574 1.32.58 2.668 1.175 4.052 1.797 9.178 2.702 17.934 4.353 27.549 5.193 15.553 1.75 31.387 1.154 46.695.582 7.695-.288 15.651-.587 23.49-.587 27.133.927 56.883 10.16 59.145 33.296.5 4.733.108 9.704-.273 14.511-.472 5.966-.96 12.136.26 17.899.908 5.938 3.252 12.252 5.522 18.359 6.262 16.858 12.738 34.292-8.157 47.443l-20.286 10.636c-3.854 1.515-8.444 2.383-12.494 3.148-.77.145-1.52.288-2.243.43-31.875 8.626-66.747 3.571-103.546-15.04-6.79-3.814-13.741-7.085-22.588-10.63-4.623-1.85-9.899-.872-15.487.163-1.838.341-3.739.694-5.6.931-12.236 1.564-30.174 2.519-44.612-7.217-5.741-3.614-9.2-9.058-12.547-14.323l-.071-.14c-2.864-7.51-10.044-16.831-21.615-20.493a143.79 143.79 0 01-3.275-.782c-12.574-3.16-25.243-8.57-38.731-16.539-10.39-6.14-20.567-8.5-31.116-7.227-9.485 1.494-17.43 4.314-25.841 7.3-1.322.469-2.654.942-4.008 1.415-4.769 1.255-8.842 1.639-13.155 2.046-1.954.185-3.977.376-6.086.652-6.778.888-12.563.888-19.339 0-14.23-2.582-28.875-5.238-43.171-3.51-8.413 1.168-16.783 3.074-24.876 4.917-10.027 2.283-20.396 4.645-30.963 5.623-10.926.573-19.687.29-27.626-.89-14.884-2.213-27.9-8.695-39.956-15.145-8.649-4.625-19.237-9.784-32.206-12.973-4.013-.75-8.227-1.396-12.687-2.08-8.107-1.243-16.643-2.554-24.577-4.721v-1.818c7.842 2.182 16.482 3.51 25.004 4.816 4.484.687 8.72 1.337 12.85 2.11 13.322 3.274 24.087 8.516 32.87 13.214 11.862 6.346 24.654 12.721 39.116 14.872 7.747 1.15 16.33 1.427 27.007.867 10.328-.957 20.607-3.298 30.547-5.561 8.15-1.857 16.579-3.776 25.133-4.963 14.747-1.788 29.602.912 43.97 3.52 6.538.857 11.928.857 18.537-.01 2.16-.283 4.207-.476 6.187-.663 4.197-.396 8.161-.77 12.615-1.937 1.25-.442 2.578-.913 3.895-1.381 8.53-3.029 16.588-5.89 26.371-7.427 11.218-1.36 21.95 1.111 32.845 7.55 13.285 7.85 25.737 13.171 38.07 16.269 1.092.275 2.179.536 3.267.78l.108.03c12.298 3.87 19.908 13.661 22.946 21.561 3.224 5.074 6.567 10.311 11.933 13.688 10.48 7.068 24.078 9.232 42.83 6.837 1.783-.228 3.644-.572 5.445-.907 5.731-1.062 11.66-2.163 17.012-.017 8.949 3.585 15.989 6.898 22.827 10.741 36.152 18.282 70.37 23.272 101.661 14.81.82-.165 1.577-.308 2.354-.455 3.912-.74 8.343-1.577 11.958-2.988l20.028-10.505c19.649-12.372 13.665-28.48 7.33-45.534-2.294-6.175-4.665-12.561-5.587-18.604-1.256-5.92-.76-12.191-.28-18.257.376-4.743.764-9.65.276-14.26-2.151-21.998-30.838-30.788-56.968-31.682-7.738.001-15.668.299-23.336.586-15.414.577-31.351 1.175-47.082-.594-9.797-.856-18.748-2.546-28.134-5.314l-.162-.06c-1.405-.633-2.774-1.235-4.114-1.826-6.008-2.647-11.683-5.148-17.25-8.798l-.12-.092a277.42 277.42 0 01-11.21-10.48c-.855-.846-1.708-1.694-2.561-2.543-8.233-8.19-16.745-16.656-27.75-22.554-3-1.607-6.14-3.174-9.179-4.688-11.969-5.969-24.346-12.14-30.994-22.29-.688-1.05-.941-2.175-1.188-3.26l-.132-.58c-.179-.747-.73-1.45-1.31-2.197a23.916 23.916 0 01-.657-.87 45.634 45.634 0 00-4.075-4.964c-8.876-9.447-21.385-14.666-33.49-13.992-1.638.093-3.116.369-4.52.842-8.723 3.433-11.74 11.544-12.725 17.74-.91 3.592-2.534 7.165-4.841 10.685-1.531 2.335-3.33 4.002-5.498 5.096-2.52 1.272-5.364 1.934-7.814 2.415-12.194 2.39-24.15 4.669-36.338 6.267-23.525 2.527-42.554-8.113-60.956-18.4-1.166-.651-2.327-1.3-3.484-1.944l-.145-.095c-3.653-2.874-7.351-5.18-11.633-7.851-.899-.561-1.825-1.14-2.784-1.742-16.37-11.448-30.443-23.977-45.341-37.243-3.477-3.095-6.994-6.227-10.592-9.391-3.074-3.218-8.245-6.656-14.252-9.492-3.341-1.311-6.618-2.792-9.786-4.224-5.267-2.383-10.244-4.632-15.699-6.241-15.683-4.747-30.997-7.979-45.522-9.612-3.325-.436-6.988-.657-10.53-.872-3.569-.216-7.26-.44-10.641-.88-8.982-.44-17.554-.435-26.312-.32zm792.17 276.503c3.102 4.623-3.236 16.99-10.889 25.797-4.373 5.034-13.037 13.43-22.336 13.686l-.436.006h-.001c-3.822 0-7.216-1.432-10.085-4.256-.691-.527-6.208-4.915-6.094-10.82.071-3.787 2.437-7.324 7.033-10.512 14.354-9.964 18.055-12.191 37.077-15.593 2.677-.475 4.684.132 5.731 1.692zm-4.037-.094c-.36 0-.762.04-1.199.117-18.543 3.316-21.817 5.286-36.093 15.197-4.103 2.846-6.214 5.948-6.277 9.219-.104 5.398 5.395 9.517 5.45 9.559l.112.095c2.434 2.413 5.255 3.638 8.383 3.638 6.162 0 13.79-4.711 20.928-12.926 8.07-9.29 13.097-20.496 10.756-23.983-.425-.634-1.06-.916-2.06-.916zM-25.32 487.994c4.445.738 9.624 1.359 15.81 1.888 23.335 1.996 44.235 13.41 61.03 22.581 3.954 2.16 7.69 4.2 11.08 5.9 3.45 1.73 7.523 2.571 12.45 2.571 6.747 0 14.091-1.533 21.869-3.156 8.037-1.677 16.35-3.412 24.267-3.412 2.488 0 4.862.176 7.058.52 11.597 1.826 16.074 8.323 15.365 13.952-.68 5.399-6.342 10.865-15.666 10.327-6.708-.387-14.5 4.943-23.6 11.16-12.749 8.709-28.616 19.549-49.74 20.696a72.19 72.19 0 01-3.87.104c-35.92 0-59.313-26.479-63.318-39.985-1.961-6.61-6.809-11.487-12.735-15.461v-2.293c6.88 4.326 12.644 9.723 14.908 17.354 4.11 13.864 28.06 38.629 61.145 38.629 1.23 0 2.481-.033 3.717-.101 20.379-1.105 35.932-11.731 48.43-20.27 9.482-6.476 17.642-12.033 25.228-11.584.371.022.737.033 1.097.033 7.61 0 11.65-4.552 12.182-8.782.566-4.486-2.653-10.337-13.58-12.057-2.053-.322-4.28-.486-6.62-.486-7.627 0-15.797 1.705-23.696 3.354-7.921 1.653-15.404 3.215-22.441 3.215-5.366 0-9.83-.932-13.65-2.846-3.427-1.72-7.18-3.769-11.153-5.94-16.586-9.058-37.228-20.33-59.998-22.277-6.032-.516-11.138-1.131-15.569-1.858zm1065.812-20.912c9.923 0 17.785 6.625 18.115 6.907 12.025 8.985 19.106 13.434 47.885 15.893 12.377 1.06 24.073 4.768 34.831 9.387v2.01c-10.847-4.743-22.644-8.588-35.074-9.651-29.432-2.516-37.122-7.356-49.232-16.409-.126-.104-7.593-6.381-16.525-6.381-3.567 0-6.942 1.008-10.03 2.996-1.753 1.129-2.54 2.405-2.402 3.901.71 7.703 24.24 18.826 36.882 24.801 1.76.833 3.335 1.577 4.642 2.214 1.77.862 3.633 1.724 5.539 2.607 12.462 5.772 26.588 12.313 30.465 25.383 2.96 9.982 16.205 25.611 35.735 33.584v2.09c-21.383-8.226-34.946-25.29-37.908-35.274-3.66-12.34-17.347-18.678-29.424-24.27a322.064 322.064 0 01-5.582-2.627c-1.3-.634-2.865-1.373-4.616-2.201-13.9-6.571-37.166-17.57-37.96-26.18-.19-2.077.891-3.891 3.217-5.389 3.497-2.25 7.346-3.391 11.442-3.391zM4.2 278.406c18.415 0 45.347 3.476 69.08 20.034 19.258 13.438 27.074 23.117 33.97 31.658 7.073 8.76 12.66 15.681 28.39 23.646 12.787 6.475 21.899 10.099 29.22 13.011 10.466 4.161 16.782 6.674 23.512 13.567 9.282 9.504 20.523 19.645 36.499 19.644 2.28 0 4.641-.211 7.015-.627 8.554-1.497 14.863-5.656 20.963-9.68 7.074-4.664 13.757-9.07 23.26-9.07 1.363 0 2.774.094 4.191.28 2.24.295 4.503.444 6.723.444 17.167 0 29.107-8.698 33.456-13.837 2.097-2.477 6.507-3.898 12.098-3.898 11.295 0 28.076 5.806 38.195 22.17 3.002 4.855 5.696 9.644 8.302 14.276 9.576 17.026 17.848 31.73 35.062 38.059 4.68 1.72 10.828 3.539 17.946 5.646 26.073 7.718 65.475 19.38 84.45 42.736 10.16 12.506 25.73 20.538 39.467 27.626 17.654 9.108 32.902 16.974 25.344 30.633-4.545 8.215-14.979 12.558-30.172 12.558-20.589 0-46.887-7.891-62.224-15.686a1001.17 1001.17 0 01-8.655-4.466c-18.796-9.772-34.937-18.185-54.688-17.664-19.777.477-33.264-12.079-45.144-23.158-2.427-2.265-4.72-4.404-7.055-6.435-5.89-5.13-16.448-6.66-27.624-8.283-14.81-2.147-30.124-4.37-35.822-15.42-3.989-7.73-11.286-11.651-21.692-11.651-9.603 0-21.724 3.623-32.423 9.69-10.458 5.933-22.452 9.067-34.687 9.067-9.364 0-18.622-1.9-26.774-5.497-8.378-3.695-14.302-5.272-19.808-5.272-6.81 0-13.427 2.443-23.6 8.714-6.593 4.065-18.524 6.492-31.915 6.492-21.649 0-49.112-6.554-61.274-24.947-3.666-5.546-6.639-10.901-9.515-16.08-11.837-21.323-21.186-38.166-66.423-47.948a186.892 186.892 0 01-7.169-1.7v-1.848a183.87 183.87 0 007.76 1.853c46.265 10.003 56.28 28.046 67.878 48.939 2.86 5.151 5.818 10.479 9.45 15.971 11.7 17.696 38.3 24.002 59.291 24.002 12.911 0 24.328-2.287 30.543-6.118 8.848-5.455 16.481-9.088 24.974-9.088 5.915 0 12.165 1.644 20.9 5.497 7.819 3.449 16.7 5.271 25.682 5.271 11.763 0 23.308-3.02 33.384-8.735 11.23-6.369 23.523-10.022 33.726-10.022 11.242 0 19.458 4.41 23.759 12.75 5.238 10.156 19.94 12.289 34.16 14.351 11.559 1.677 22.476 3.262 28.875 8.832 2.358 2.054 4.664 4.204 7.104 6.48 12.123 11.306 24.676 22.96 43.368 22.536.596-.016 1.19-.023 1.78-.023 19.637 0 35.657 8.33 54.208 17.976 2.807 1.46 5.679 2.953 8.636 4.456 15.063 7.655 40.857 15.406 61.014 15.406 14.44 0 23.904-3.87 28.126-11.501 6.806-12.3-6.335-19.08-24.521-28.462-13.924-7.184-29.706-15.326-40.124-28.148-18.574-22.864-57.558-34.403-83.356-42.037-7.161-2.12-13.346-3.95-18.104-5.7-17.972-6.607-26.4-21.59-36.16-38.94-2.596-4.617-5.282-9.392-8.267-14.22-9.048-14.63-24.696-21.18-36.188-21.18-4.76 0-8.589 1.165-10.24 3.116-6.159 7.276-19.466 14.619-35.314 14.619-2.343 0-4.729-.158-7.091-.468a29.576 29.576 0 00-3.822-.257c-8.694 0-15.074 4.208-21.828 8.662-6.306 4.158-12.826 8.457-21.912 10.049a43.747 43.747 0 01-7.498.667c-16.991 0-28.662-10.493-38.268-20.331-6.421-6.575-12.567-9.02-22.75-13.069-7.367-2.93-16.536-6.575-29.422-13.101-16.142-8.174-22.131-15.593-29.066-24.182-6.817-8.442-14.543-18.01-33.566-31.284-23.21-16.194-49.572-19.593-67.6-19.593-11.051 0-18.383 1.316-18.456 1.33-.095.014-4.322.618-11.065 1.021v-1.762c6.499-.394 10.55-.971 10.61-.98.257-.048 7.582-1.367 18.91-1.367zM22.094 518c2.262 0 4.629.634 6.663 1.785 2.024 1.146 3.5 2.7 4.925 4.204 1.28 1.35 2.49 2.623 4.047 3.599 5.016 3.136 13.882 6.876 27.63 6.876 1.261 0 2.557-.031 3.853-.096.324-.015.642-.023.951-.023 5.445 0 9.495 2.51 10.57 6.548 1.162 4.365-1.432 10.151-8.637 12.767-4.1 1.487-10.093 2.34-16.443 2.34-7.155 0-31.17-1.368-39.802-18.972-4.383-8.942-2.908-13.66-.9-16.042 1.624-1.926 4.16-2.986 7.143-2.986zm0 1.809c-2.216 0-4.095.779-5.287 2.193-1.395 1.656-3.104 5.722 1.132 14.362 8.11 16.542 30.917 17.827 37.714 17.827 5.955 0 11.758-.816 15.522-2.182 6.12-2.221 8.338-7.082 7.365-10.736-.905-3.399-4.322-5.334-9.192-5.098a81.476 81.476 0 01-3.988.098c-14.384 0-23.713-3.945-29.004-7.256-1.788-1.118-3.144-2.547-4.455-3.929-1.384-1.46-2.69-2.837-4.431-3.822-1.662-.94-3.57-1.457-5.376-1.457zm484.783.191c6.05 0 19.285 3.032 22.759 7.986.554.791.374 1.388.124 1.749-.523.758-1.733 1.142-3.925 1.245-.278.013-.576.02-.892.02-5.784 0-16.678-2.134-21.692-6.713-1.165-1.065-1.519-2.02-1.05-2.839.557-.974 2.087-1.448 4.676-1.448zm0 1.751c-1.978 0-2.612.335-2.674.423v.014c.005.064.062.358.708.947 4.73 4.32 15.38 6.114 20.032 6.114.27 0 .526-.006.764-.017 1.332-.062 1.867-.233 2.056-.316a.985.985 0 00-.049-.076c-2.744-3.913-14.572-7.089-20.837-7.089zm98.089-557.72C594.697-18.326 589.59-9.372 589.52-9.249c-.073.178-10.857 25.093.03 48.506l1.38 2.962c10.347 22.164 16.047 34.373-.189 45.987-7.868 5.627-45.941 35.608-22.81 73.305 12.635 20.59 30.888 23.592 48.542 26.495 11.105 1.826 21.594 3.552 30.062 9.525 4.57 3.224 10.893 6.842 17.587 10.673 24.712 14.145 58.558 33.52 45.94 57.627-6.315 12.067-16.526 23.094-26.4 33.758-14.445 15.6-28.088 30.335-26.344 45.434 3.241 28.055 21.001 50.259 50.01 62.521 23.472 9.923 25.555 32.34 27.57 54.019 2.378 25.614 4.625 49.808 39.778 54.175.764.094 1.588.203 2.467.319 15.201 1.997 46.828 6.162 64.061-21.495 4.468-7.172 4.705-15.554 5.135-30.77.15-5.36.322-11.432.704-18.635 1.44-27.19 4.542-45.057 35.4-63.873.418-.222 35.436-18.846 40.502-42.764 2.399-11.328 7.46-18.262 11.927-24.38 5.224-7.156 9.736-13.336 8.152-24.547-2.673-18.931-41.375-26.796-66.986-32.002-2.04-.414-3.997-.812-5.846-1.196-12.966-2.7-25.266-11.517-32.102-23.01-6.058-10.184-6.825-20.59-2.103-28.55a869.36 869.36 0 011.947-3.262c10.809-18.04 30.929-51.618 14.584-66.62-17.37-15.942-47.384-6.102-73.867 2.58-28.84 9.454-65.654 11.555-82.487-10.9-9.753-13.01-7.919-22.154-6.146-30.996 1.415-7.065 2.755-13.739-1.377-22.406-21.131-44.333-12.469-76.393 25.746-95.292.211-.123 9.287-5.43 21.606-13.908h3.37c-13.382 9.316-23.47 15.213-23.72 15.358-37.261 18.43-45.619 49.783-24.912 93.224 4.18 8.77 2.988 15.79 1.644 22.536l-.153.763c-1.79 8.93-3.48 17.362 5.864 29.828 16.104 21.486 51.733 19.34 79.706 10.172 27.187-8.912 57.998-19.01 76.42-2.101 17.286 15.864-3.235 50.113-14.26 68.511-.685 1.146-1.337 2.234-1.943 3.256-4.44 7.486-3.675 17.352 2.101 27.062 6.565 11.035 18.31 19.487 30.653 22.056 1.846.385 3.798.782 5.834 1.196 26.203 5.324 65.801 13.372 68.646 33.507 1.664 11.781-3.016 18.192-8.435 25.615-4.372 5.99-9.328 12.778-11.662 23.795-5.226 24.675-39.926 43.125-41.4 43.899-30.03 18.313-33.06 35.84-34.473 62.522-.38 7.187-.552 13.25-.703 18.6-.436 15.466-.677 23.985-5.362 31.504-17.966 28.833-50.702 24.525-66.433 22.454-.872-.114-1.69-.222-2.447-.317-36.902-4.582-39.32-30.61-41.657-55.78-1.971-21.205-4.007-43.134-26.401-52.6-29.69-12.551-47.862-35.247-51.175-63.908-1.82-15.757 12.064-30.753 26.762-46.628 9.799-10.58 19.928-21.52 26.141-33.393 11.95-22.831-19.732-40.966-45.19-55.539-6.74-3.857-13.107-7.502-17.763-10.786-8.02-5.657-18.226-7.335-29.03-9.113-17.335-2.85-36.982-6.081-50.093-27.45-23.822-38.82 15.244-69.593 23.317-75.368 15.125-10.818 9.936-21.935-.403-44.081l-1.381-2.964c-11.168-24.017-.12-49.504-.006-49.759.094-.17 5.073-8.904 15.062-26.07zm41.637 0c-3 4.854-6.092 9.61-9.132 14.254-13.37 20.43-25.998 39.727-24.771 60.949.315 5.473 2.361 10.877 4.339 16.102 2.212 5.843 4.498 11.886 4.451 18.15-.069 9.193-3.579 18.797-10.433 28.543-.868 1.235-1.727 2.445-2.568 3.632-18.013 25.414-27.937 39.413 22.968 61.905 28.898 12.77 39.558 22.713 48.121 30.704 7.377 6.882 13.202 12.317 28.348 16.65 23.948 6.85 41.241 17.987 47.445 30.551 4.324 8.756 3.335 17.994-2.941 27.458-6.467 9.75-18.189 20-29.525 29.913-20.05 17.533-40.783 35.663-32.923 51.305 5.76 11.462 19.692 16.328 33.166 21.035 15.677 5.475 30.486 10.647 30.896 25.51.12 4.39-.074 9.687-.283 15.294-1.107 29.885-2.624 70.814 35.125 77.52 10.12 1.8 17.82.871 22.888-2.76 11.981-8.579 8.313-30.987 5.632-47.35-.657-4.021-1.279-7.82-1.608-11.006-2.227-21.613 11.2-53.836 32.501-64.61 37.587-19.011 57.19-38.076 58.265-56.666 1.16-20.053-1.987-20.96-22.452-26.862-4.99-1.44-11.2-3.23-18.53-5.652-41.194-13.612-58.85-27.222-60.943-46.977-.582-5.492-.41-11.38-.243-17.075.473-16.16.96-32.869-15.679-42.582-12.228-7.138-26.336-7.202-40.07-7.04l-1.35.016c-11.243.133-21.86.263-30.613-3.443-16.616-7.041-67.184-28.465-57.091-57.783 8.322-24.174 2.69-37.488-2.756-50.365-.816-1.93-1.661-3.928-2.441-5.923-12.65-32.348-5.32-60 21.792-82.19.12-.126.509-.542 1.098-1.207h2.702a58.443 58.443 0 01-2.063 2.31l-.082.076C651.3-11.88 644.13 15.202 656.529 46.912c.773 1.976 1.613 3.963 2.427 5.884 5.55 13.123 11.289 26.694 2.79 51.38-8.63 25.073 27.826 43.84 55.998 55.775 8.237 3.492 18.573 3.367 29.52 3.235 14.522-.176 29.545-.358 42.784 7.37 17.568 10.255 17.066 27.427 16.579 44.033-.164 5.648-.336 11.49.237 16.888 2.012 19.002 19.275 32.185 59.584 45.504 7.28 2.406 13.463 4.19 18.432 5.622 20.815 6.003 25.148 7.252 23.913 28.591-1.109 19.191-21.056 38.726-59.286 58.062-20.658 10.448-33.66 41.874-31.483 62.991.323 3.147.943 6.925 1.598 10.925 2.74 16.746 6.496 39.679-6.346 48.873-5.64 4.038-14.01 5.104-24.883 3.175-39.54-7.025-37.93-50.51-36.863-79.285.208-5.585.402-10.86.282-15.206-.371-13.473-13.996-18.498-28.67-23.628l-.9-.314c-13.883-4.85-28.24-9.864-34.336-21.995-8.37-16.652 12.834-35.194 33.34-53.124 11.243-9.832 22.87-19.998 29.204-29.552 5.966-8.995 6.921-17.745 2.841-26.008-5.97-12.093-22.784-22.86-46.129-29.54-15.704-4.491-21.7-10.085-29.29-17.166-8.447-7.882-18.962-17.692-47.506-30.304-52.847-23.35-41.924-38.76-23.827-64.292.84-1.185 1.698-2.393 2.565-3.627 6.671-9.486 10.087-18.808 10.154-27.704.045-6.003-2.194-11.917-4.359-17.638-2.015-5.326-4.1-10.835-4.43-16.524-1.251-21.688 11.508-41.187 25.02-61.831 2.87-4.39 5.79-8.88 8.632-13.45zm-92.69 486.473c7.55 0 13.818 1.348 18.63 4.008 11.063 6.116 18.146 16.044 17.623 24.707-.3 4.967-3.18 8.92-8.108 11.128-3.661 1.64-6.56 2.404-9.118 2.404-4.38 0-7.27-2.248-10.929-5.095-2.156-1.676-4.598-3.577-7.88-5.494-3.404-1.99-8.978-4.223-14.879-6.586-12.075-4.835-23.481-9.403-23.428-14.114.02-1.845 1.798-3.457 5.283-4.793.695-.256 16.86-6.165 32.806-6.165zm0 1.757c-15.452 0-31.68 5.934-31.841 5.994-2.646 1.014-4.002 2.1-4.015 3.222-.04 3.623 12.297 8.563 22.21 12.534 5.987 2.397 11.642 4.662 15.198 6.74 3.406 1.992 5.91 3.938 8.117 5.655 3.551 2.763 5.896 4.587 9.358 4.587 2.155 0 4.701-.69 8.012-2.174 5.435-2.435 6.798-6.61 6.983-9.684.486-8.084-6.215-17.401-16.677-23.185-4.428-2.448-10.263-3.689-17.345-3.689zM289.904 404c8.643 0 13.488 2.044 18.618 4.207 4.941 2.084 10.05 4.239 19.224 4.594 22.554.876 28.558 7.868 39.458 20.563l.558.65c4.728 5.504 19.919 13.287 34.608 20.813 18.072 9.258 33.68 17.254 34.586 22.624.177 1.05-.183 1.973-1.07 2.748-1.37 1.195-3.239 1.801-5.56 1.801-5.42 0-12.76-3.234-21.257-6.979-10.076-4.44-21.497-9.473-31.187-9.473-1.052 0-2.077.06-3.048.179a62.635 62.635 0 01-7.599.474c-16.812.001-30.655-7.38-36.125-19.264-3.967-8.62-17.471-13.956-27.709-13.956-3.955 0-7.307.761-9.692 2.2-6.373 3.847-17.397 7.935-25.273 7.935-3.934 0-6.784-.976-8.47-2.902-1.64-1.876-1.967-4.096-2.283-6.242-.064-.435-.127-.87-.202-1.3-1.252-7.153-1.73-24.17 20.784-27.664 4.365-.678 8.171-1.008 11.64-1.008zm0 1.736c-3.319 0-6.982.319-11.2.972-19.911 3.09-20.456 17.449-19.008 25.731.078.442.143.888.21 1.336.297 2.027.579 3.94 1.912 5.465 1.242 1.42 3.47 2.14 6.618 2.14 7.377 0 17.82-3.9 23.9-7.569 2.78-1.679 6.607-2.566 11.065-2.566 11.238 0 25.464 5.652 29.816 15.11 5.142 11.172 18.177 18.111 34.018 18.11 2.36 0 4.8-.152 7.25-.452a27.917 27.917 0 013.397-.2c10.282 0 21.975 5.153 32.292 9.7 7.88 3.472 15.323 6.752 20.153 6.751 1.676 0 2.948-.398 3.886-1.217.45-.392.617-.828.526-1.37-.775-4.584-17.463-13.134-33.602-21.402-14.874-7.622-30.257-15.502-35.236-21.297l-.559-.651c-10.839-12.624-16.28-18.96-37.708-19.792-9.682-.376-15.019-2.626-20.18-4.802-4.872-2.055-9.475-3.997-17.55-3.997zM97.58 417c7.81 0 14.316 1.624 19.334 4.83 5.136 3.28 11.813 6.03 18.27 8.688 9.6 3.952 17.892 7.366 18.744 11.706.344 1.746-.55 3.498-2.651 5.207C144.229 453.16 127.056 458 113.776 458c-10.372 0-16.949-2.949-18.516-8.301-2.774-9.47-9.982-14.115-15.246-17.507-3.955-2.548-7.078-4.562-7.013-7.567.048-2.188 2.132-3.997 5.72-4.962C83.239 418.447 90.18 417 97.58 417zm0 1.797c-7.106 0-13.8 1.399-18.165 2.571-1.25.337-4.161 1.331-4.204 3.288-.046 2.118 2.564 3.8 6.177 6.129 5.517 3.554 13.071 8.423 16.023 18.499 1.674 5.719 9.824 6.919 16.365 6.919 12.564 0 29.357-4.693 35.938-10.042 1.595-1.297 2.259-2.492 2.031-3.653-.674-3.436-8.876-6.812-17.56-10.387-6.553-2.698-13.329-5.487-18.637-8.878-4.62-2.95-10.664-4.446-17.968-4.446zm-102.97 6.756c3.495 0 6.832.776 9.65 2.244 7.702 4.012 10.912 10.921 7.156 15.4-1.941 2.313-5.483 3.64-9.717 3.64-3.68 0-7.612-.992-11.068-2.792-8.615-4.488-11.802-9.858-8.316-14.014 2.282-2.72 7.108-4.478 12.295-4.478zm1116 0c3.495 0 6.83.776 9.653 2.244 7.7 4.012 10.915 10.921 7.154 15.4-1.942 2.313-5.48 3.64-9.72 3.64-3.679 0-7.61-.992-11.067-2.792-8.614-4.488-11.8-9.859-8.315-14.014 2.28-2.72 7.108-4.478 12.295-4.478zm-1116 1.759c-4.458 0-8.553 1.447-10.434 3.689-3.258 3.886 1.834 8.528 7.686 11.577 3.095 1.612 6.589 2.5 9.837 2.5 3.471 0 6.334-1.04 7.855-2.85 3.077-3.671.15-9.486-6.524-12.964-2.452-1.277-5.364-1.952-8.42-1.952zm1116 0c-4.458 0-8.553 1.447-10.434 3.689-3.258 3.885 1.834 8.528 7.686 11.577 3.095 1.612 6.588 2.5 9.834 2.5 3.471 0 6.34-1.04 7.857-2.85 3.08-3.671.156-9.486-6.529-12.964-2.444-1.277-5.359-1.952-8.414-1.952zM11.84 304.208c30.033 0 55.208 11.445 72.8 33.098 1.255 1.546 2.488 3.074 3.706 4.581 16.28 20.168 29.139 36.097 52.637 42.536 13.198 3.616 19.018 10.059 24.153 15.743 5.171 5.726 9.637 10.67 20.339 12.357 17.887 2.818 34.08 10.427 36.099 16.963.532 1.722.398 4.26-3.257 6.563-2.485 1.567-5.852 2.362-10.007 2.362-13.98 0-34.388-9.17-43.964-17.4-12.61-10.835-32.45-23.49-46.864-23.49-.45 0-.897.012-1.339.037-.591.033-1.205.05-1.834.05-16.941 0-45.21-11.437-52.824-24.291-7.365-12.432-18.328-19.561-30.077-19.561-2.153 0-4.363.234-6.568.698-3.287.69-7.078 1.775-11.09 2.924-9.514 2.724-20.296 5.81-31.05 5.81-2.82 0-5.488-.216-8.02-.644v-1.804c2.521.46 5.188.69 8.02.69 10.36 0 20.948-3.03 30.288-5.704 4.06-1.162 7.895-2.26 11.276-2.97a34.832 34.832 0 017.144-.759c12.653 0 24.353 7.5 32.1 20.576 7.101 11.99 34.64 23.278 50.8 23.277.575 0 1.136-.015 1.677-.045.494-.028.993-.042 1.497-.042 15.122 0 34.974 12.43 48.508 24.06 9.263 7.96 28.92 16.828 42.317 16.83 3.638-.002 6.536-.666 8.616-1.977 2.23-1.405 3.04-2.966 2.483-4.774-1.803-5.835-17.542-13.004-34.369-15.656-11.568-1.822-16.5-7.282-21.72-13.06-5.182-5.738-10.541-11.67-23.068-15.103-24.23-6.639-37.927-23.606-53.786-43.252a1841.192 1841.192 0 00-3.703-4.577c-17.162-21.123-41.686-32.287-70.92-32.287-2.033 0-4.114.054-6.186.163-7.604.4-14.854.594-22.169.594-3.025 0-5.948-.038-8.806-.099v-1.758c2.86.06 5.782.098 8.806.098 7.264 0 14.467-.193 22.021-.59 2.12-.11 4.252-.167 6.334-.167zM295.08 179c4.444 0 8.828.37 13.401 1.131 15.612 2.6 28.966 8.923 37.6 17.805 6.842 7.038 9.73 16.099 12.526 24.862 4.004 12.56 7.786 24.424 22.205 30.825 8.944 3.973 19.044 6.354 28.81 8.656 5.405 1.274 10.995 2.593 16.337 4.167 15.198 4.479 23.643 11.274 26.575 21.382 1.414 4.876 1.937 9.894 2.442 14.746.753 7.22 1.532 14.686 5.302 21.587 5.913 10.827 18.234 17.844 30.15 24.63 1.315.75 2.625 1.496 3.922 2.244l.23.132c11.26 6.5 22.902 13.218 32.023 21.674 4.351 4.034 8.34 12.68 7.2 19.617-.669 4.065-3.638 7.85-8.362 10.658-3.746 2.228-10.435 4.884-21.02 4.884-13.502 0-30.025-4.227-49.11-12.565-7.199-3.143-15.54-7.014-22.844-11.87-7.144-4.75-12.48-10.511-16.313-17.609-3.205-5.935-7.696-10.407-13.729-13.67-3.261-1.764-6.845-3.259-10.311-4.705-2.77-1.155-5.636-2.35-8.353-3.687-8.041-3.954-14.826-9.16-20.166-15.475-5.42-6.407-10.168-11.61-17.73-15.391-6.23-3.115-13.598-5.043-21.31-5.577a69.4 69.4 0 00-4.76-.163c-12.85 0-25.702 3.494-35.264 9.586-4.696 2.991-8.196 6.836-10.703 11.754-.649 1.276-1.23 2.617-1.793 3.915-1.142 2.64-2.324 5.37-4.194 7.844-6.47 8.57-20.405 10.37-30.955 10.37-2.587 0-5.287-.106-8.025-.318-14.92-1.146-30.349-5.531-44.618-12.682-15.21-7.624-26.616-17.305-32.983-27.997-5.871-9.857-5.55-20.168-5.24-30.14.116-3.738.237-7.604.04-11.433-.422-8.176-1.496-17.417-8.925-23.607-2.56-2.132-5.612-3.844-8.563-5.499-3.818-2.143-7.768-4.357-10.85-7.553-7.047-7.302-8.664-15.208-4.325-21.148 7.518-10.292 26.23-12.289 39.892-13.747 1.734-.186 3.404-.363 4.98-.55 14.57-1.723 29.428-3.184 43.796-4.596 7.44-.732 15.131-1.489 22.689-2.271 2.193-.228 4.405-.447 6.625-.668 13.821-1.373 28.115-2.792 41.169-6.368 7.81-2.14 15.181-3.18 22.532-3.18zm735.754 96.685c3.777 0 7.382.394 10.71 1.171 11.252 2.627 23.774 3.96 37.215 3.96 13.161 0 22.437-1.33 22.53-1.343.257-.048 7.582-1.367 18.907-1.367 6.216 0 13.414.4 21.126 1.563v1.79c-7.712-1.19-14.91-1.594-21.126-1.594-11.048 0-18.38 1.316-18.45 1.33-.145.021-9.607 1.38-22.987 1.38-13.655 0-26.39-1.357-37.848-4.032-3.124-.729-6.514-1.1-10.077-1.1-27.56 0-62.569 22.771-65.506 38.201-2.41 12.659-.786 21.71 4.966 27.674 4.406 4.568 11.421 7.346 20.85 8.259 36.426 3.525 49.96 10.923 64.287 18.755 10.63 5.81 21.62 11.819 43.009 16.446 20.104 4.349 33.363 10.219 42.882 17.181v2.333c-9.363-7.274-22.588-13.3-43.474-17.819-21.756-4.706-32.906-10.8-43.69-16.695-14.094-7.705-27.407-14.984-63.286-18.456-10.05-.972-17.57-3.98-22.355-8.94-6.134-6.361-7.9-15.846-5.397-28.998 3.123-16.4 38.669-39.7 67.714-39.7zM295.08 180.756c-7.097 0-14.227 1.008-21.8 3.083-13.274 3.636-27.686 5.068-41.621 6.45-2.218.221-4.424.44-6.614.667-7.565.785-15.26 1.541-22.704 2.273-14.354 1.411-29.198 2.87-43.741 4.59-1.585.188-3.266.367-5.012.554-13.938 1.489-31.285 3.34-38.255 12.882-5.746 7.865 1.736 16.693 4.166 19.211 2.877 2.982 6.515 5.023 10.368 7.184 3.038 1.704 6.18 3.467 8.89 5.724 7.96 6.631 9.093 16.248 9.532 24.74.2 3.887.079 7.783-.038 11.55-.318 10.218-.618 19.87 5.028 29.35 6.189 10.39 17.31 19.817 32.163 27.26 13.974 7.005 29.063 11.298 43.636 12.418 2.666.204 5.293.309 7.808.309 9.97 0 23.102-1.65 29.038-9.51 1.75-2.319 2.894-4.96 4-7.514.57-1.32 1.162-2.685 1.834-4.003 2.652-5.203 6.37-9.281 11.37-12.466 9.95-6.34 23.316-9.976 36.667-9.976 1.66 0 3.327.056 4.956.17 8.065.558 15.78 2.579 22.31 5.844 7.932 3.966 12.823 9.317 18.392 15.9 5.162 6.105 11.72 11.137 19.49 14.96 2.651 1.302 5.48 2.483 8.216 3.623 3.521 1.47 7.163 2.988 10.53 4.809 6.392 3.46 11.142 8.18 14.518 14.43 3.693 6.84 8.83 12.386 15.7 16.956 7.156 4.759 15.383 8.572 22.487 11.676 18.75 8.19 34.909 12.344 48.026 12.344 9.968 0 16.201-2.464 19.677-4.53 4.24-2.521 6.903-5.888 7.493-9.48 1.029-6.26-2.628-14.492-6.688-18.256-8.952-8.298-20.486-14.956-31.642-21.393l-.23-.134a800.91 800.91 0 00-3.91-2.237c-12.16-6.925-24.735-14.088-30.891-25.36-3.915-7.165-4.709-14.776-5.476-22.136-.499-4.792-1.016-9.745-2.395-14.498-2.75-9.48-10.75-15.876-25.181-20.13-5.272-1.553-10.825-2.862-16.196-4.128-9.884-2.33-20.104-4.74-29.266-8.809-15.252-6.771-19.33-19.56-23.273-31.927-2.739-8.59-5.572-17.472-12.133-24.223-8.311-8.548-21.199-14.641-36.29-17.153-4.419-.736-8.652-1.094-12.939-1.094zM786.9 252c5.518 0 13.552 1.59 20.474 9.17 11.506 12.596 24.772 19.084 42.446 25.47 17.723 6.405 20.215 22.453 16.961 34.252-1.848 6.7-14.571 16.356-26.876 25.694-10.822 8.213-22.013 16.707-24.206 22.139C811.125 380.059 797.127 390 785.743 390c-1.153 0-2.28-.1-3.35-.298-5.871-1.09-11.731-5.942-18.515-11.56-6.97-5.771-14.87-12.314-23.867-15.315-9.304-3.102-15.88-9.404-17.591-16.857-1.502-6.537 1.068-12.849 7.05-17.315 13.042-9.74 38.577-31.599 41.878-44.61 1.291-5.09.874-10.006.506-14.343-.597-7.013-1.111-13.07 6.164-16.297.216-.083 3.782-1.405 8.881-1.405zm0 1.751c-4.57 0-7.827 1.196-7.86 1.209-5.987 2.656-5.56 7.676-4.97 14.625.378 4.446.805 9.485-.543 14.804-3.404 13.414-28.335 34.935-42.53 45.537-5.427 4.053-7.756 9.788-6.392 15.732 1.577 6.869 7.66 12.685 16.272 15.556 9.422 3.143 17.491 9.825 24.61 15.72 6.268 5.19 12.187 10.093 17.415 11.063.902.168 1.859.252 2.84.252 10.52 0 23.528-9.371 27.84-20.054 2.364-5.856 13.254-14.12 24.783-22.87 12.064-9.157 24.54-18.626 26.244-24.806 3.078-11.162.809-26.316-15.715-32.286-18.004-6.505-31.532-13.13-43.323-26.04-6.373-6.977-13.672-8.442-18.672-8.442zm222.03 62.635c.072-.157 7.273-14.673 33.462-13.77 7.382.253 14.408.657 21.202 1.047 11.13.64 22.638 1.302 35.891 1.302 7.264 0 14.467-.193 22.017-.59 2.12-.11 4.252-.167 6.339-.167 4.609 0 9.106.272 13.481.807v1.783a107.635 107.635 0 00-13.481-.831c-2.031 0-4.118.054-6.183.163-7.607.4-14.858.594-22.173.594-13.334 0-24.884-.665-36.053-1.307-6.779-.39-13.787-.793-21.136-1.044-24.522-.846-31.014 12.085-31.271 12.62-2.154 4.749-2.441 8.075-.897 10.454 2.338 3.6 8.936 5.109 18.067 7.196 13 2.97 30.805 7.039 48.395 20.079 6.087 4.514 13.319 6.708 22.11 6.708 10.36 0 20.95-3.03 30.29-5.704 4.062-1.162 7.89-2.26 11.272-2.97.357-.075.703-.132 1.06-.195v1.804c-.156.03-.324.055-.48.089-3.292.69-7.075 1.775-11.093 2.924-9.508 2.724-20.294 5.81-31.05 5.81-9.385 0-17.119-2.35-23.64-7.184-17.198-12.751-34.703-16.752-47.484-19.673-9.67-2.21-16.658-3.807-19.433-8.084-1.845-2.84-1.594-6.61.788-11.861zM806.444 290c1.633 0 3.402.127 5.257.377 15.01 2.018 24.163 5.407 28.804 10.666 3.358 3.803 4.284 8.533 2.83 14.46-2.024 8.256-11.261 13.703-20.194 18.972-6.678 3.938-12.986 7.658-16.105 12.328C802.656 353.36 791.69 360 779.201 360c-6.539 0-15.995-1.903-23.92-10.966-.122-.15-9.836-12.606 11.781-27.92 7.832-5.547 12.516-11.594 16.647-16.93C789.846 296.26 794.693 290 806.444 290zm0 1.748c-10.497 0-14.832 5.597-20.83 13.344-4.212 5.437-8.984 11.6-17.058 17.32-20.236 14.334-11.506 25.547-11.416 25.658 5.818 6.653 13.453 10.182 22.061 10.182 11.602 0 21.792-6.167 25.862-12.26 3.352-5.02 9.853-8.854 16.739-12.914 8.595-5.07 17.483-10.31 19.345-17.905 1.334-5.441.525-9.738-2.474-13.136-4.278-4.846-12.968-8.005-27.349-9.939a37.121 37.121 0 00-4.88-.35zM291.454 198c15.595 0 27.622 6.158 32.995 16.894 4.618 9.23 5.117 15.888 5.556 21.763.443 5.912.825 11.017 5.235 17.41 7.094 10.288 27.42 15.584 47.076 20.707 22.39 5.835 43.54 11.347 39.086 24.01-3.02 8.591-8.6 12.769-17.055 12.769h-.003c-8.105 0-18.086-3.818-28.652-7.862-3.805-1.457-7.74-2.963-11.71-4.34l-3.225-1.123c-15.732-5.492-35.312-12.326-53.905-12.326-11.743 0-21.559 2.663-30.006 8.142-4.872 3.16-9.49 6.542-13.956 9.812C249.445 313.7 236.747 323 221.088 323c-8.162 0-16.514-2.485-25.533-7.595-30.275-17.156-27.075-28.802-23.023-43.548.66-2.402 1.344-4.885 1.898-7.482 3-14.054-2.59-20.196-7.994-26.133-4.45-4.891-8.654-9.51-7.11-17.866.043-1.095 1.13-12.144 29.083-11.71 2.324.037 4.67.079 7.03.121 6.467.116 13.154.238 19.717.238 17.683 0 37.702-.758 52.093-6.376 7.79-3.042 16.162-4.649 24.205-4.649zm0 1.745c-7.699 0-15.723 1.545-23.206 4.466-14.806 5.78-35.147 6.56-53.092 6.56-6.589 0-13.289-.122-19.768-.238-2.358-.043-4.702-.086-7.024-.122a91.024 91.024 0 00-1.53-.012c-24.981 0-25.274 9.948-25.274 10.048l-.012.127c-1.442 7.698 2.336 11.85 6.71 16.655 5.404 5.939 11.529 12.67 8.376 27.432-.562 2.638-1.25 5.141-1.915 7.562-3.881 14.125-6.947 25.281 22.148 41.768 8.625 4.888 16.548 7.264 24.221 7.264 14.775 0 27.16-9.07 40.272-18.672 4.49-3.288 9.134-6.688 14.058-9.882 8.742-5.67 19.318-8.545 31.434-8.545 19.069 0 38.891 6.92 54.818 12.478l3.22 1.122c4.01 1.39 7.963 2.904 11.785 4.367 10.328 3.952 20.082 7.685 27.669 7.685h.003c7.41 0 12.145-3.65 14.9-11.486 3.892-11.07-15.354-16.085-37.639-21.892-20.07-5.23-40.822-10.638-48.336-21.534-4.645-6.735-5.06-12.274-5.498-18.137-.43-5.747-.918-12.258-5.408-21.23-6.873-13.733-22.317-15.784-30.912-15.784zM606.534 206c22.953 0 45.962 18.183 55.788 25.947 10.733 8.482 26.048 29.932 14.648 43.446-2.895 3.43-5.374 7.408-8 11.62-7.434 11.925-15.122 24.255-33.052 24.93-.99.038-1.988.057-2.995.057-12.804 0-29.737-3.228-38.855-12.284-5.692-5.654-7.39-12.586-5.05-20.601.114-.29 8.83-22.072 5.573-35.798-.627-2.636-1.554-5.45-2.536-8.43l-.266-.808c-2.882-8.765-5.63-17.707-.775-23.19 2.417-2.73 6.583-4.336 12.379-4.772a41.953 41.953 0 013.141-.117zm0 1.764c-.985 0-1.97.037-2.93.108-5.188.391-8.707 1.709-10.761 4.029-4.414 4.984-1.472 13.91 1.373 22.542.99 3.01 1.928 5.853 2.566 8.548 3.363 14.168-5.245 35.682-5.613 36.591-2.155 7.395-.6 13.823 4.646 19.036 8.623 8.566 24.823 11.618 37.108 11.618.97 0 1.934-.018 2.887-.055 16.618-.625 24.01-12.48 31.158-23.947 2.658-4.265 5.17-8.293 8.145-11.82 10.683-12.663-4.087-33.094-14.37-41.22-9.63-7.61-32.18-25.43-54.209-25.43zM273.72 217c3.002 0 6.037.448 9.28 1.37 8.186 2.325 15.217 8.8 18.809 17.32 3.391 8.045 2.814 16.164-1.508 21.187-5.053 5.873-12.506 8.727-22.783 8.727-4.32 0-8.494-.493-12.4-.997-4.305-.554-7.216-.116-8.92 1.364-1.95 1.695-2.544 4.902-1.814 9.8.703 4.733-3.597 12.35-10.226 18.113-6.762 5.878-14.882 9.116-22.866 9.116-3.775 0-7.538-.715-11.178-2.122-.057-.012-15.326-4.775-9.567-22.62 2.373-7.358-.332-13.452-2.948-19.346-3.455-7.781-6.72-15.132 1.854-24.23 8.224-8.727 14.563-9.93 20.19-9.93 2.132 0 4.288.191 6.572.395 2.578.229 5.245.466 8.223.466 2.1 0 4.101-.118 6.117-.362 6.767-.82 11.9-2.69 16.862-4.5 5.296-1.928 10.297-3.751 16.303-3.751zm0 1.73c-5.507 0-10.07 1.664-15.352 3.588-4.867 1.775-10.385 3.785-17.47 4.643a53.19 53.19 0 01-6.46.383c-3.107 0-5.837-.243-8.478-.478-2.218-.197-4.314-.383-6.318-.383-5.82 0-11.173 1.568-18.385 9.22-7.885 8.369-4.947 14.985-1.546 22.647 2.722 6.131 5.537 12.471 3.003 20.326-5.284 16.376 8.162 20.58 8.298 20.619 3.428 1.321 6.854 1.974 10.28 1.974 7.337 0 14.866-3.032 21.198-8.537 6.242-5.426 10.312-12.477 9.673-16.763-.817-5.492-.065-9.036 2.368-11.15 2.23-1.938 5.843-2.58 10.955-1.919 3.812.493 7.883.973 12.032.973 9.473 0 16.317-2.602 20.924-7.956 3.951-4.592 4.427-12.137 1.243-19.69-3.381-8.02-9.905-14.088-17.454-16.233-2.992-.85-5.776-1.263-8.511-1.263zm355.883 26.65c5.854 0 13.293 4.777 17.616 9.496 1.687 1.842 4.365 5.288 3.351 7.68-.662 1.566-6.71 15.15-16.843 15.49l-.387.006h-.001c-2.69 0-5.386-.952-8.014-2.832-12.741-9.113-2.914-25.783-2.489-26.488 1.528-2.208 3.86-3.351 6.767-3.351zm0 1.757c-2.1 0-3.663.782-4.78 2.392-.067.115-9.512 16.156 2.004 24.391 2.203 1.577 4.395 2.376 6.513 2.376 7.148.001 12.863-8.986 15.114-14.295.488-1.153-.708-3.546-3.046-6.098-3.893-4.25-10.754-8.766-15.805-8.766zm390.567-104.939c23.907-3.853 46.806 3.35 68.967 10.707l2.4.798c7.053 2.346 14.346 4.77 21.49 6.779 1.336.35 2.74.56 4.1.765 1.875.281 3.806.572 5.658 1.247.748.16 7.4 1.475 18.537.563v1.828c-11.874.953-18.76-.606-19.251-.725l-.156-.048c-1.618-.601-3.36-.863-5.212-1.14-1.427-.216-2.905-.438-4.404-.83-7.226-2.032-14.55-4.467-21.631-6.822-22.595-7.515-45.956-15.285-70.05-11.402-2.146.347-4.367.98-6.791 1.933-1.758.692-4.014 1.66-5.88 3.02-.49.356-.967.722-1.44 1.095-1.216.96-2.428 1.99-3.6 2.985-4.182 3.55-8.506 7.224-14.368 9.04-.174.054-.349.104-.526.15l-.147.03c-6.322.933-12.684 1.105-18.835 1.274-11.625.316-22.605.616-33.248 5.64-.36.19-.764.414-1.166.65-5.346 3.11-11.303 7.002-14.946 12.286a52.36 52.36 0 00-3.514 5.953c-2.366 4.343-3.738 8.916-4.202 13.997-.22 2.403.261 5.023 1.433 7.789 1.05 2.474 2.337 5.033 4.636 6.986 7.14 6.064 18.476 8.108 28.544 9.549 9.39.983 17.904 1.914 26.481 3.285 12.261 1.959 23.07 7.207 33.488 12.452l1.56.786c1.5.755 2.998 1.511 4.497 2.255 15.591 7.745 33.63 12.48 52.163 13.697 5.889-.004 11.83-.104 17.572-.202 11.8-.197 22.947-.386 34.854.2l.112.01c3.303.433 6.963.654 10.512.869 3.583.217 7.299.442 10.692.887.937.105 1.886.235 2.823.353v1.778c-1.049-.134-2.11-.278-3.158-.396-3.326-.435-6.986-.657-10.535-.872-3.571-.216-7.254-.439-10.636-.88-11.8-.577-22.883-.39-34.616-.193-5.755.098-11.707.198-17.713.198-18.983-1.241-37.368-6.069-53.263-13.964-1.502-.747-3.003-1.504-4.508-2.261-10.728-5.412-21.821-11.006-34.288-12.997-8.51-1.359-16.983-2.286-26.384-3.272-10.474-1.497-22.229-3.629-29.834-10.089-2.588-2.198-3.988-4.962-5.116-7.625-1.266-2.986-1.785-5.835-1.542-8.469.483-5.28 1.91-10.036 4.365-14.543a53.853 53.853 0 013.615-6.118c3.851-5.587 10.036-9.637 15.58-12.862a35.15 35.15 0 011.3-.72c11.183-5.28 22.967-5.602 34.363-5.912 6.045-.165 12.294-.335 18.426-1.234.113-.03.227-.064.342-.099 5.39-1.669 9.539-5.192 13.55-8.599 1.185-1.006 2.41-2.048 3.657-3.03.494-.392.993-.774 1.502-1.145 2.073-1.512 4.509-2.56 6.4-3.304 2.6-1.023 5-1.703 7.341-2.08zM955.737 247c5.356 0 15.772 1.721 20.915 6.337 1.224 1.098 1.617 2.104 1.168 2.992-.567 1.124-2.292 1.671-5.271 1.671-6.776 0-18.767-2.976-22.136-7.639-.588-.814-.441-1.45-.214-1.84.477-.82 1.652-1.268 3.81-1.453a20.32 20.32 0 011.728-.068zm0 1.85c-.559 0-1.066.02-1.509.058-1.312.113-1.833.311-2.014.406.013.023.03.048.052.079 2.934 4.063 14.15 6.757 20.283 6.757 2.452 0 3.206-.436 3.274-.552 0 0 .015-.304-.748-.989-4.676-4.195-14.343-5.759-19.338-5.759zm-695.709-18.199c7.742 0 16.74 5.282 16.74 12.092 0 6.668-6.402 12.092-14.273 12.092-7.87 0-14.272-5.424-14.272-12.092 0-7.458 4.524-12.092 11.805-12.092zm734.62-49.787c13.017-6.82 28.936-8.907 47.309-6.202 5.535.813 10.993 2.06 16.271 3.265 4.847 1.108 9.86 2.253 14.88 3.049 8.637 1.368 18.04 2.325 28.747 2.924 3.076.172 5.602.448 8.047.715 6.066.664 11.797 1.288 24.555-.036 2.312-.24 4.513-.485 6.636-.732v1.774c-2.034.238-4.145.47-6.346.7-13.06 1.358-18.936.715-25.154.034-2.406-.263-4.895-.534-7.897-.703-10.803-.604-20.298-1.571-29.028-2.953-5.114-.81-10.172-1.966-15.064-3.084-5.225-1.193-10.63-2.428-16.057-3.227-17.78-2.616-33.144-.62-45.66 5.938-5.873 3.078-12.006 4.85-18.499 6.723-.963.278-1.931.558-2.906.844-5.753 1.689-11.423 3.722-12.054 8.295-.368 2.667.286 4.778 2 6.452 4.02 3.927 13.25 4.7 20.667 5.323 1.936.163 3.765.317 5.382.514 6.759.828 15.37 2.374 22.025 7.033 1.643 1.15 3.133 2.419 4.576 3.646 1.659 1.413 3.375 2.874 5.288 4.114 3.47 2.248 7.38 4.21 11.618 5.833 7.547 2.89 15.968 4.688 25.027 5.347 3.094.226 6.287.077 9.377-.068 3.319-.153 6.753-.314 10.126-.02 7.4.642 14.435 3.464 21.237 6.194 3.439 1.381 6.686 2.684 9.96 3.714 9.91 3.122 19.886 4.79 31.382 5.151v1.734c-11.809-.381-22.187-2.094-32.215-5.253-3.365-1.06-6.811-2.443-10.144-3.78-6.622-2.659-13.47-5.406-20.465-6.014-3.184-.277-6.371-.129-9.75.03-3.171.147-6.457.298-9.713.063-9.328-.679-18.009-2.535-25.8-5.517-4.397-1.684-8.455-3.722-12.06-6.058-2.03-1.316-3.8-2.821-5.51-4.277-1.406-1.196-2.86-2.433-4.42-3.526-6.22-4.355-14.426-5.82-20.882-6.609-1.564-.191-3.366-.343-5.275-.502-7.828-.658-17.57-1.476-22.172-5.969-2.075-2.028-2.91-4.634-2.48-7.745.834-6.034 8.758-8.36 13.494-9.75.978-.289 1.951-.57 2.917-.849 6.365-1.837 12.377-3.574 18.03-6.535zm-734.62 51.546c-8.882 0-9.573 7.909-9.573 10.333 0 5.698 5.401 10.333 12.04 10.333 6.64 0 12.041-4.635 12.041-10.333 0-5.724-7.937-10.333-14.508-10.333zm227.52-268.379c4.402 3.884 6.965 7.884 8.206 9.834 11.127 17.473 9.854 37.958 8.361 57.86l-.1 1.327a621.74 621.74 0 00-.626 8.88c-.705 11.557-2.694 23.266-4.62 34.59-3.379 19.875-6.872 40.428-3.474 60.702 2.664 15.874 10.2 30.574 24.435 47.662 11.987 14.386 20.098 27.213 20.728 43.053.202 5.104.817 20.639-14.359 22.801-8.545 1.216-17.47-.858-26.1-2.866-2.503-.583-4.867-1.132-7.18-1.591-7.187-1.425-12.808-2.174-18.225-2.432-9.937-.474-19.37-2.534-28.036-6.125-16.809-6.963-31.293-18.626-40.786-32.842-3.705-5.55-6.397-11.54-9-17.33-1.502-3.344-3.055-6.8-4.78-10.115-6.133-11.784-13.034-20.286-21.72-26.758-23.392-17.43-61.532-20.944-102.02-9.395-7.412 2.114-14.766 4.663-21.878 7.128-7.855 2.722-15.978 5.538-24.248 7.794-8.419 2.297-22.145 3.336-39.525 4.654-18.247 1.382-40.954 3.104-64.679 6.947-18.857 3.054-30.678 5.967-41.916 8.787l-1.122.282c-14.768 3.706-28.717 7.207-55.9 10.032-12.391 1.287-18.309.773-24.198.135l-.93-.101c-2.405-.263-4.891-.534-7.89-.702-3.928-.22-7.679-.489-11.287-.807v-1.766c3.654.326 7.458.598 11.446.822 3.073.172 5.597.447 8.037.714 6.062.663 11.787 1.288 24.529-.036 26.987-2.804 40.206-6.123 55.514-9.964 11.635-2.921 23.666-5.94 43.266-9.116 23.843-3.862 46.617-5.588 64.917-6.975 17.23-1.306 30.84-2.337 39.006-4.565 8.185-2.233 16.266-5.033 24.08-7.742 7.146-2.477 14.535-5.038 22.018-7.172 41.3-11.78 80.295-8.126 104.315 9.77 8.923 6.65 15.994 15.347 22.251 27.369 1.746 3.355 3.308 6.832 4.82 10.194 2.575 5.733 5.239 11.661 8.87 17.1 9.284 13.904 23.438 25.305 39.85 32.104 8.502 3.522 17.378 5.46 27.13 5.926 5.562.263 11.309 1.03 18.637 2.482 2.357.467 4.743 1.022 7.267 1.61 8.38 1.949 17.045 3.966 25.069 2.822 11.906-1.696 12.85-12.808 12.526-21.019-.615-15.48-8.248-27.603-20.364-42.145-14.429-17.32-22.071-32.244-24.78-48.394-3.438-20.506.075-41.175 3.473-61.165 1.92-11.287 3.903-22.958 4.603-34.442.18-2.933.404-5.904.63-8.9 1.511-20.085 3.075-40.855-8.03-58.296-1.318-2.07-4.191-6.56-9.277-10.62zm554.328 224.157c9.363 0 21.855 2.875 33.936 5.657 2.411.554 4.814 1.107 7.18 1.635 16.229 3.619 33.968 4.16 43.097 4.16h.323c3.3-.005 5.302-.082 5.324-.083 2.678-.174 6.026-.644 9.586-1.166v1.789c-3.47.507-6.718.957-9.441 1.132-.123.006-2.232.087-5.792.087h-.427c-9.369-.018-27.04-.606-43.278-4.227-2.372-.53-4.78-1.083-7.197-1.64-11.931-2.745-24.268-5.585-33.31-5.585-7.026 0-11.242 1.737-12.892 5.31-.785 1.703-.665 3.284.368 4.831 4.702 7.04 27.315 11.645 43.826 15.01l2.838.579c9.54 1.954 18.525 5.294 27.214 8.523 10.906 4.054 21.206 7.884 30.301 7.884.1.004 1.261.083 3.147.083a78.5 78.5 0 004.643-.141v1.748a75.193 75.193 0 01-4.643.151c-1.997 0-3.202-.082-3.247-.086h-.011c-9.486 0-20.007-3.909-31.143-8.047-8.596-3.196-17.485-6.5-26.823-8.414l-2.835-.578c-17.856-3.637-40.079-8.164-45.242-15.892-1.324-1.983-1.488-4.087-.49-6.253 2.008-4.35 6.912-6.467 14.988-6.467zm-996.494 8.127c6.64 0 11.17 1.258 13.849 3.845 2.803 2.708 3.467 6.708 2.03 12.227-5.202 19.984-32.371 21.538-40.576 21.538-2 0-3.205-.082-3.255-.086h-.014c-9.486 0-20.003-3.909-31.137-8.047-3.804-1.414-7.668-2.843-11.6-4.17v-1.913c4.268 1.417 8.444 2.964 12.552 4.491 10.908 4.054 21.21 7.884 30.297 7.884.11.004 1.264.083 3.156.083 9.967 0 33.66-1.962 38.391-20.134 1.275-4.899.745-8.52-1.574-10.761-2.228-2.152-6.192-3.198-12.119-3.198-5.753 0-12.51.995-18.473 1.873-4.062.599-7.9 1.163-11.028 1.365-.123.006-2.233.087-5.796.087h-.41c-7.78-.015-21.316-.429-34.996-2.648v-1.797c13.88 2.294 27.706 2.686 35.406 2.686h.324c3.308-.005 5.305-.082 5.325-.083 2.978-.192 6.76-.75 10.765-1.34 6.058-.892 12.924-1.902 18.883-1.902zM708.203 174c5.742 0 11.814 1.788 18.047 5.314 6.045 3.42 12.979 5.55 19.682 7.61 12.113 3.723 23.554 7.239 26.773 17.718 2.702 8.797 2.962 12.301 1.074 14.423-1.749 1.963-5.063 2.258-10.08 2.704l-1.569.143c-.635.058-1.257.088-1.848.088-7.58 0-10.457-4.689-13.79-10.118-1.535-2.499-3.121-5.082-5.336-7.613-2.848-3.254-12.502-6.808-21.837-10.246l-.901-.332c-11.703-4.311-22.536-8.405-23.365-12.893-.273-1.472.51-2.86 2.322-4.126.17-.116 4.003-2.672 10.828-2.672zm0 1.761c-5.945 0-9.32 2.215-9.354 2.237-1.216.85-1.737 1.687-1.578 2.547.677 3.663 12.537 8.03 23 11.883 10.048 3.7 19.539 7.195 22.733 10.844 2.312 2.642 4.009 5.406 5.506 7.845 3.25 5.296 5.6 9.122 11.772 9.122.503 0 1.038-.026 1.586-.077l1.577-.142c4.414-.393 7.329-.653 8.497-1.964 1.396-1.57 1.014-5.093-1.415-13-2.946-9.588-13.358-12.786-25.411-16.492-6.834-2.1-13.9-4.271-20.175-7.82-5.845-3.306-11.476-4.983-16.738-4.983zM439.876-18.229c5.107-2.041 11.816-.025 20.507 6.164 14.366 10.23 11.556 39.158 8.3 72.654-2.846 29.287-6.072 62.48 2.134 87.988 5.675 17.636 17.71 31.09 26.5 40.916 7.65 8.55 13.177 14.728 11.566 19.757-.775 2.415-3.154 4.378-7.278 6-4.593 1.807-9.478 2.635-14.492 2.635-22.469 0-47.598-16.6-61.418-36.036-20.052-28.205-44.183-49.501-69.781-61.585-28.274-13.345-73.34-10.874-114.813 6.299-41.406 17.145-69.793 15.116-92.603 13.482-25.4-1.821-55.157 3.649-86.063 15.806-34.034 13.389-55.472 8.523-56.37 8.309l-.154-.048c-1.614-.6-3.359-.863-5.207-1.141-1.428-.215-2.906-.437-4.405-.83-7.224-2.029-14.542-4.464-21.62-6.817v-1.907l.858.286c7.053 2.346 14.346 4.77 21.49 6.779 1.336.35 2.74.56 4.097.765 1.874.281 3.81.572 5.657 1.247 1.358.29 22.427 4.464 54.656-8.214 31.278-12.303 61.451-17.83 87.264-15.984 22.518 1.614 50.538 3.617 91.36-13.287 42.148-17.452 88.073-19.907 117.001-6.25 26.303 12.415 50.05 33.353 70.581 62.232 8.587 12.076 21.206 22.61 34.623 28.902 14.11 6.617 27.727 7.962 38.34 3.786 3.508-1.38 5.507-2.968 6.113-4.858 1.36-4.248-4.194-10.457-11.227-18.319-8.89-9.935-21.064-23.544-26.838-41.495-8.296-25.786-5.055-59.131-2.196-88.551 3.21-33.037 5.982-61.568-7.572-71.22-7.814-5.563-13.871-7.548-18-5.9-13.454 5.373-7.82 47.703-3.708 78.61 1.284 9.64 2.495 18.746 3.096 26.074 1.745 21.279-1.186 32.702-9.502 37.044-7.44 3.884-18.812 2.316-38.023-5.241-2.804-1.104-5.74-2.278-8.78-3.494-36.547-14.619-86.6-34.64-116.283-15.956-33.976 21.385-100.073 30.986-132.147 24.676-31.474-6.189-71.897 6.734-73.757 7.34-32.452 14.668-62.376 13.015-87.103 6.318v-1.886c24.432 6.727 54.027 8.51 86.048-5.982l.123-.048c.42-.14 42.458-13.888 75.23-7.445 31.59 6.215 96.715-3.261 130.211-24.345 30.808-19.39 81.6.928 118.69 15.762 3.037 1.215 5.966 2.387 8.766 3.489 18.155 7.141 29.194 8.793 35.79 5.349 7.572-3.952 10.196-14.891 8.51-35.467-.598-7.294-1.807-16.383-3.088-26.004-4.644-34.893-9.906-74.44 4.917-80.36zM771.84-35.97c-18.493 11.447-40.556 22.247-42.398 23.144-1.376.883-31.575 20.717-24.155 50.02 1.939 7.655 2.85 15.864 3.733 23.8 2.701 24.287 5.252 47.226 35.563 53.69 35.045 7.476 54.357-2.243 71.4-10.817 2.798-1.406 5.441-2.736 8.11-3.97 10.363-4.788 27.443-4.962 42.502-.438 15.306 4.599 26.147 13.05 30.527 23.799 3.499 8.586 14.35 15.02 30.555 18.111 22.269 4.25 48.775 1.113 59.096-6.995 4.866-3.822 8.813-8.068 12.295-11.813 9.494-10.213 16.99-18.28 34.825-10.25 3.129 1.411 6.757 3.274 10.958 5.432 20.643 10.603 55.23 28.367 96.471 23.197v1.805c-41.847 5.153-76.802-12.801-97.691-23.531-4.172-2.143-7.773-3.994-10.848-5.378-16.1-7.252-22.391-.483-31.914 9.762-3.53 3.796-7.53 8.1-12.52 12.02-10.808 8.49-38.26 11.837-61.199 7.457-16.988-3.241-28.408-10.09-32.153-19.28-4.169-10.231-14.539-18.292-29.198-22.696-14.46-4.343-30.767-4.219-40.576.313-2.633 1.217-5.259 2.537-8.039 3.936-16.57 8.335-37.192 18.709-73.185 11.03-31.815-6.783-34.432-30.316-37.202-55.23-.877-7.89-1.785-16.049-3.698-23.612-7.827-30.903 24.674-51.563 25.003-51.768l.107-.058c.315-.153 21.479-10.482 39.954-21.68zm-342.576 0a128.731 128.731 0 00-5.572 2.754c-22.19 11.666-23.071 28.27-24.003 45.848-.899 16.92-1.827 34.417-22.79 47.612-21.011 13.223-37.11 7.978-52.68 2.908-15.97-5.204-31.056-10.116-51.028 4.941-34.223 25.803-77.39 32.963-128.302 21.28-38.367-8.804-79.647 16.98-81.679 18.273l-.075.048c-31.98 17.392-63.719 17.615-88.456 12.93v-1.804c24.322 4.69 55.634 4.59 87.11-12.525.355-.235 43.448-27.85 83.725-18.607 50.09 11.493 92.528 4.474 126.133-20.862 21.023-15.851 37.495-10.486 53.426-5.298 15.659 5.1 30.45 9.92 50.432-2.656 20.168-12.695 21.076-29.786 21.954-46.314.914-17.242 1.86-35.072 24.993-47.234.855-.45 1.7-.872 2.545-1.294zm532.852 0c33.086 13.992 56.975 34.268 41.107 70.292-.132.275-11.843 25.265 7.59 44.834 8.636 8.695 31.85 26.01 64.075 35.757 17.42 5.268 40.922 9.156 66.434 4.383v1.81c-25.824 4.725-49.59.783-67.236-4.554-32.68-9.884-56.254-27.478-65.031-36.316-20.221-20.36-8.055-46.255-7.93-46.514 15.881-36.056-9.738-55.95-43.897-69.692zm-148.623 0c-17.971 7.4-33.083 23.174-47.824 38.576-4.4 4.598-8.558 8.941-12.813 13.093-19.597 19.118-12.566 45.701-6.633 59.845 2.899 6.906 7.425 15.24 16.786 18.418 2.718.923 5.633 1.39 8.667 1.39 14.857 0 28.8-10.975 32.719-14.339 8.734-7.496 28.188-18.649 45.98-18.649 9.224 0 16.904 2.919 22.827 8.676a711.71 711.71 0 014.477 4.403c15.374 15.203 34.506 34.126 62.21 34.126 5.708 0 11.67-.806 17.725-2.392 28.686-7.524 26.86-27.844 24.552-53.572-.95-10.592-2.028-22.598-1.011-34.875 2.305-27.818-34.012-34.673-72.463-41.93-18.037-3.403-36.689-6.924-51.89-12.759a.35.35 0 00-.033-.01h5.361c14.14 4.836 30.856 8 47.082 11.061 39.391 7.435 76.599 14.457 74.17 43.753-1.007 12.156.065 24.1 1.01 34.637 2.379 26.485 4.257 47.407-26.072 55.36-6.283 1.647-12.484 2.483-18.431 2.483-28.78 0-48.284-19.289-63.956-34.789-1.518-1.501-3.004-2.972-4.465-4.392-5.479-5.324-12.575-8.024-21.093-8.024-17.071 0-35.867 10.812-44.334 18.08-5.223 4.482-19.027 14.908-34.365 14.908-3.339 0-6.553-.517-9.552-1.534-10.177-3.455-14.975-12.225-18.019-19.48-6.079-14.483-13.248-41.732 7.013-61.498 4.232-4.129 8.378-8.46 12.767-13.046 13.941-14.566 28.208-29.46 45.044-37.52zm-532.405 0c2.6 24.937-4.346 48.192-19.92 64.72-13.7 14.538-32.942 22.762-55.642 23.783-17.487.787-31.596-.234-44.043-1.135-30.176-2.184-51.978-3.762-96.728 19.84C44.474 81.935 22.535 87.692-.453 88.35c-8.31.238-16.608-.214-24.868-1.318V85.31c30.654 4.253 61.156-.932 88.834-15.53 45.407-23.95 68.694-22.264 98.174-20.13 12.369.895 26.388 1.906 43.71 1.13 22.02-.99 40.684-8.97 53.977-23.077 15.287-16.221 22.077-39.105 19.475-63.673zm708.663 0c23.804 14.736 48.712 35.052 44.989 53.951-.813 4.12-3.714 7.637-6.519 11.039-1.283 1.555-2.61 3.163-3.698 4.79-6.16 9.208-8.885 22.623 13.122 34.224 32.217 16.987 69.92 22.359 103.677 15.6v1.816c-34.227 6.714-72.345 1.217-104.92-15.956-24.617-12.979-19.246-28.44-13.854-36.503 1.134-1.697 2.49-3.34 3.8-4.928 2.802-3.395 5.446-6.602 6.185-10.351 3.683-18.69-22.395-39.148-46.402-53.682zM859.176-16.615c2.992 0 6.232.28 9.906.858 30.271 4.764 86.618 13.63 85.371 39.132-.319 6.539.706 13.614 1.698 20.458l.156 1.078c2.537 17.585 4.454 33.956-17.843 36.655-1.823.22-3.661.333-5.466.333-16.032 0-28.664-8.509-42.037-17.517-9.485-6.387-19.292-12.992-30.612-16.555-7.772-2.446-15.552-3.685-23.12-3.685-22.373 0-34.81 10.288-38.092 13.44-2.911 2.8-6.65 4.343-10.525 4.343-7.36 0-16.112-5.882-17.935-18.797-.762-5.409-1.462-11.683-.09-17.7 1.826-8.001 9.092-18.011 33.343-20.256 18.398-1.703 25.908-7.643 32.533-12.885 5.787-4.579 11.253-8.902 22.713-8.902zm0 1.756c-10.532 0-15.444 3.885-21.13 8.384-6.883 5.444-14.685 11.617-33.854 13.391-22.894 2.119-29.716 11.406-31.408 18.824-1.32 5.784-.668 11.666.113 17.195 1.67 11.84 9.316 17.234 15.715 17.234 3.24 0 6.282-1.279 8.798-3.698 9.173-8.82 24.059-14.085 39.819-14.085 7.854 0 15.912 1.282 23.948 3.81 11.663 3.671 21.612 10.372 31.234 16.853l1.15.774c12.63 8.498 24.678 16.32 39.437 16.32 1.691 0 3.416-.105 5.126-.313 20.632-2.497 18.396-17.93 15.808-35.797-1-6.91-2.035-14.054-1.708-20.725 1.03-21.098-39.56-30.416-83.58-37.343-3.529-.555-6.626-.824-9.468-.824zm198.914-21.11c15.84 15.936 30.333 40.118 21.889 71.672-.078.214-5.38 14.469 1.069 19.954 2.374 2.018 6.195 2.6 11.355 1.727 13.039-2.205 5.54-12.2 6.122-23.772.409-8.152.833-16.58 5.675-23.364 8.8-12.328 9.168-28.907 1.282-46.217h2.375c7.832 17.581 7.308 34.444-1.71 47.077-4.58 6.416-4.994 14.63-5.392 22.573-.593 11.79 6.848 22.928-7.883 25.419-5.986 1.012-10.517.256-13.465-2.253-7.307-6.219-1.826-20.952-1.59-21.576 8.445-31.567-6.641-55.644-22.575-71.24zm-154.38 46.25c15.846 0 25.486 2.738 28.656 8.141 4.922 8.392 7.795 19.438 3.114 25.194-2.06 2.534-5.343 3.818-9.76 3.818h-.001c-1.533 0-3.223-.16-5.025-.474-10.758-1.882-15.943-6.664-20.109-10.507-3.646-3.362-6.524-6.018-11.887-6.018-.728 0-1.504.05-2.307.147-.966.116-1.936.176-2.885.176-6.937 0-12.813-3.29-13.667-7.654-.95-4.844 4.184-9.152 13.732-11.524l.147-.028c.095-.013 9.547-1.271 19.992-1.271zm0 1.756c-9.773 0-18.646 1.119-19.541 1.236-8.358 2.09-12.889 5.663-12.124 9.563.69 3.515 5.616 6.166 11.461 6.166.836 0 1.692-.052 2.544-.155.916-.11 1.806-.168 2.648-.168 6.393 0 9.886 3.222 13.585 6.634 4.157 3.834 8.866 8.179 18.896 9.932 1.641.287 3.17.433 4.54.433h.002c3.605 0 6.256-1.012 7.879-3.008 4.203-5.169 1.256-15.812-3.261-23.512-3.453-5.886-16.386-7.121-26.629-7.121zM35.657-35.97c.81 5.589 2.745 10.493 4.55 15.038 2.366 5.962 4.603 11.596 3.486 17.288C41.736 6.33 37.03 9.942 33.249 12.843c-3.09 2.372-5.321 4.086-5.455 8.49-.071 2.319 1.466 4.866 4.329 7.172 4.597 3.705 11.672 6.007 18.463 6.007 5.871 0 14.4-1.654 21.694-9.53 8.538-9.22 5.076-35.785-3.607-60.95h2.29c8.676 25.495 11.97 52.427 3.12 61.984-7.845 8.474-17.108 10.252-23.497 10.252-7.483 0-14.982-2.444-20.061-6.536-3.286-2.648-5.048-5.646-4.962-8.442.156-5.119 3.057-7.346 6.127-9.703 3.728-2.861 7.954-6.106 9.796-15.498 1.038-5.29-1.023-10.484-3.41-16.498-1.862-4.69-3.86-9.754-4.67-15.56zm57.251 0c21.018 34.722 52.136 59.637 76.974 66.282 11.775 3.151 22.102 2.234 29.863-2.65 28.127-17.704 35.874-44.74 37.557-63.632h2.236c-1.69 19.23-9.572 46.86-38.4 65.003-8.382 5.276-19.442 6.293-31.975 2.941C143.7 25.163 111.79-.417 90.47-35.969zm211.886 0c3.777 9.192 6.048 21.767 2.091 41.132-1.318 6.455-.422 11.17 2.662 14.018 2.378 2.196 6.118 3.31 11.117 3.31 9.112 0 22.188-3.76 35.876-10.315 11.499-5.507 15.9-18.151 19.988-30.577l.322-.98c1.935-5.892 3.828-11.65 6.397-16.588h2.433c-2.708 4.97-4.665 10.924-6.67 17.026-4.294 13.076-8.735 26.597-21.31 32.619-14.028 6.718-27.527 10.57-37.036 10.57-5.682 0-9.994-1.32-12.817-3.926-3.527-3.257-4.592-8.45-3.164-15.435 3.957-19.375 1.572-31.805-2.251-40.854z"/></g></g></svg>